<svg id="cat" xmlns="http://www.w3.org/2000/svg" viewBox="0 0 428.11 341.05"><defs><style>.cls-1{fill:#1b0000;opacity:0.2;}.cls-1,.cls-2,.cls-3,.cls-4,.cls-5,.cls-6,.cls-7{fill-rule:evenodd;}.cls-2{fill:#7c7f81;}.cls-3{fill:#d65a6f;}.cls-4{fill:#8d8f92;}.cls-5,.cls-8{fill:#fff;}.cls-7{fill:#7d7c7d;}</style></defs><title>cat</title><path class="cls-1" d="M94.61,314.78c-.78,2.24-1.61,4.42-2.53,6.53-7.34,3-20.54,13.66-23.75,31.34,6.71-5.11,18.12-10,30-4.59a19.24,19.24,0,0,0-7.93,4.9c-9.55,1.33-17.8,3.78-23.37,7.87A95.79,95.79,0,0,1,88.62,355c-5.29,7-5.73,15.87-5.73,15.87,2.64-2.72,16.67-10.19,31.78-8.27-8.79,3.81-6.18,8.86-7.48,15.53,18.24-5.53,36.44-1.32,40.83,5.42,53,57.32,180.47,57.19,233.45,0,4.4-6.74,22.6-11,40.83-5.42-1.29-6.67,1.32-11.72-7.47-15.53,15.11-1.92,29.14,5.55,31.78,8.27,0,0-.44-8.92-5.73-15.87a95.62,95.62,0,0,1,21.56,5.8c-5.57-4.09-13.82-6.54-23.37-7.87a19.25,19.25,0,0,0-7.93-4.9c11.9-5.39,23.3-.52,30,4.59C458,335,444.76,324.26,437.42,321.3c-.92-2.11-1.76-4.29-2.53-6.53,12.18-1.74,24.14-2.14,35.17-.35-8.88-3.81-21.71-3.72-35.81-1.54C431,303,429,292,427.38,280.36a101.32,101.32,0,0,1,19.81-1.6c-5.62-1.57-12.5-1.53-20.08-.38-2.75-19.91-4.67-41.6-10-62.67C442.87,171.61,435.74,96,435.74,96s-59.56.54-95.42,29.9c-2-.83-4-1.65-6.15-2.43-49-18.24-89.84-18.24-138.84,0-2.11.78-4.15,1.6-6.15,2.43C153.32,96.52,93.76,96,93.76,96s-7.13,75.64,18.62,119.74c-5.31,21.07-7.23,42.77-10,62.67-7.58-1.16-14.46-1.2-20.08.38a101.32,101.32,0,0,1,19.81,1.6C100.47,292,98.46,303,95.26,312.89c-14.1-2.18-26.93-2.27-35.81,1.54C70.47,312.63,82.43,313,94.61,314.78Z" transform="translate(-41.95 -85.48)"/><path class="cls-2" d="M187.33,132.67C157.48,86.18,76.26,85.48,76.26,85.48S66.37,190,111.66,225Z" transform="translate(-41.95 -85.48)"/><path class="cls-2" d="M307.17,132.67C337,86.18,418.24,85.48,418.24,85.48S428.12,190,382.84,225Z" transform="translate(-41.95 -85.48)"/><path class="cls-3" d="M99.16,111.54s38.9-.69,65.27,28.18-47.2,59.88-47.2,59.88S87.38,153.1,99.16,111.54Z" transform="translate(-41.95 -85.48)"/><path class="cls-3" d="M395.34,111.54s-38.89-.69-65.27,28.18,47.2,59.88,47.2,59.88S407.12,153.1,395.34,111.54Z" transform="translate(-41.95 -85.48)"/><path class="cls-4" d="M177.83,113C69.42,153.3,98.72,255.57,74.58,310.8c-7.34,3-20.54,13.66-23.75,31.34,6.71-5.11,18.12-10,30-4.59-14.62,4.68-15.47,22.84-15.47,22.84,2.64-2.72,16.67-10.19,31.78-8.27-8.79,3.81-6.18,8.86-7.48,15.53,18.24-5.53,36.44-1.32,40.83,5.42l1.88-2.76.34-.12c25,23.76,67,36.08,114.5,36.08h0c47.52,0,89.47-12.31,114.5-36.08l.35.12,1.87,2.76c4.4-6.74,22.6-11,40.83-5.42-1.29-6.67,1.32-11.72-7.47-15.53,15.11-1.92,29.14,5.55,31.78,8.27,0,0-.85-18.16-15.47-22.84,11.9-5.39,23.3-.52,30,4.59-3.21-17.68-16.41-28.39-23.75-31.34C395.78,255.57,425.09,153.3,316.67,113,267.67,94.71,226.83,94.71,177.83,113Z" transform="translate(-41.95 -85.48)"/><path class="cls-5" d="M130.53,373.08c53,57.32,180.47,57.19,233.45,0C346.59,261.88,149.56,262.17,130.53,373.08Z" transform="translate(-41.95 -85.48)"/><path class="cls-6" d="M250.36,317.58c-1-.05-1.91-.08-2.85-.1v45c-5.81,10.19-13.16,16-21.85,17.17-18.47,2.52-43.9-19.39-44.83-18.45,19.69,22,51,35.6,69.55,7.56,18.59,28,49.86,14.42,69.55-7.56-.93-.94-26.37,21-44.83,18.45-8.69-1.21-16-7-21.85-17.17v-45C252.27,317.5,251.31,317.53,250.36,317.58Z" transform="translate(-41.95 -85.48)"/><path class="cls-3" d="M250.35,274.21c-47.13-.49-46.73,16.58-22.07,34a162.81,162.81,0,0,0,22.07,13.26,162.79,162.79,0,0,0,22.07-13.26C297.08,290.78,297.49,273.71,250.35,274.21Z" transform="translate(-41.95 -85.48)"/><path class="cls-7" d="M168.55,334.28a2.12,2.12,0,0,0-1-2.79c-3.78-1.72-92.34-41.82-125.58-27.56C83.35,297.19,137.87,320.78,168.55,334.28Z" transform="translate(-41.95 -85.48)"/><path class="cls-7" d="M325.95,334.28a2.11,2.11,0,0,1,1-2.79c3.77-1.72,92.33-41.82,125.58-27.56C411.15,297.19,356.63,320.78,325.95,334.28Z" transform="translate(-41.95 -85.48)"/><path class="cls-7" d="M186.45,315.09a2.13,2.13,0,0,0-.66-2.91c-3.53-2.2-86.18-53.66-121-43.92C106.73,267.06,157.76,297.64,186.45,315.09Z" transform="translate(-41.95 -85.48)"/><path class="cls-7" d="M308,315.09a2.12,2.12,0,0,1,.67-2.91c3.52-2.2,86.18-53.66,121-43.92C387.77,267.06,336.74,297.64,308,315.09Z" transform="translate(-41.95 -85.48)"/><path class="cls-7" d="M166.39,350.94a1.89,1.89,0,0,0-1.46-2.23C161.29,348,75.81,331,49.56,350.32,84.45,335.94,136.85,345.4,166.39,350.94Z" transform="translate(-41.95 -85.48)"/><path class="cls-7" d="M328.11,350.94a1.88,1.88,0,0,1,1.45-2.23c3.65-.73,89.12-17.68,115.38,1.61C410,335.94,357.65,345.4,328.11,350.94Z" transform="translate(-41.95 -85.48)"/><path class="cls-8" d="M173.58,252.17a20.3,20.3,0,1,0-15.95-23.87A20.3,20.3,0,0,0,173.58,252.17ZM165,229.77a12.82,12.82,0,1,1,25.14,5,13.27,13.27,0,0,1-.78,2.53,12.32,12.32,0,0,0-7.78-4.56,15.13,15.13,0,0,0-15.22,5.73A12.69,12.69,0,0,1,165,229.77Z" transform="translate(-41.95 -85.48)"/><path d="M181.55,232.74a12.32,12.32,0,0,1,7.78,4.56,13.27,13.27,0,0,0,.78-2.53,12.82,12.82,0,1,0-23.78,3.7A15.13,15.13,0,0,1,181.55,232.74Z" transform="translate(-41.95 -85.48)"/><path class="cls-8" d="M334,228.31A20.3,20.3,0,1,0,318,252.17,20.29,20.29,0,0,0,334,228.31Zm-8.7,10.16A15.13,15.13,0,0,0,310,232.74a12.32,12.32,0,0,0-7.78,4.56,13.27,13.27,0,0,1-.78-2.53,12.82,12.82,0,1,1,23.78,3.7Z" transform="translate(-41.95 -85.48)"/><path d="M310,232.74a12.32,12.32,0,0,0-7.78,4.56,13.27,13.27,0,0,1-.78-2.53,12.82,12.82,0,1,1,23.78,3.7A15.13,15.13,0,0,0,310,232.74Z" transform="translate(-41.95 -85.48)"/></svg>