<svg id="chicken" xmlns="http://www.w3.org/2000/svg" viewBox="0 0 312.88 430"><defs><style>.cls-1{fill:#1b0000;opacity:0.2;}.cls-1,.cls-2,.cls-3,.cls-4{fill-rule:evenodd;}.cls-2{fill:#c96c38;}.cls-3{fill:#e74348;}.cls-4{fill:#ee9921;}.cls-5{fill:#fff;}</style></defs><title>chicken</title><path class="cls-1" d="M123.84,411.43c1.86.31,3.88-18.46,3.76-26.68-.07-.83-.12-1.64-.12-2.37.07.62.1,1.45.12,2.37,1.5,17.9,18.62,56.45,33.57,54.52,2.25-.29-.12-41.69.66-41.56,3.43,12.18,4.08,40.59,25.25,51.46,5-2.43,2.21-33.94,3.64-33.94,1.82,26.18,13.41,40.23,23.84,47.71,5.3.21,19.87-32.87,19.87-39.26.1,0,11.09,42.52,27.49,47.32,20.94-3.18,30.78-47.37,30.89-47.32,0,6.4,14.57,39.47,19.87,39.26,10.43-7.48,22-21.53,23.84-47.71,1.43,0-1.32,31.51,3.64,33.94,21.17-10.87,21.82-39.28,25.25-51.46.78-.13-1.58,41.27.66,41.56,15,1.93,32.07-36.61,33.57-54.51,0-.93,0-1.77.12-2.39,0,.74,0,1.55-.12,2.39-.12,8.23,1.89,27,3.76,26.67,35.64-5.9-46.53-126.3-36.13-176.82,7.32-68.3-35.07-103.29-70.55-115.37,14.33-17.65,9.22-55-5.9-33.1-9.36-20.79-45.37-58.72-40.32-17.73C216.9,46.72,177.7,48.07,195.39,69c10.7,12.66,16.36,12.86,6.38,12.86-41.34,0-53.16,32.22-42.61,32.93,20.46,1.36,37.85,2.25,55.41,11.35-30.94,16.25-60.83,50.25-54.59,108.48C170.37,285.12,88.2,405.52,123.84,411.43Z" transform="translate(-99.56 -41)"/><path class="cls-2" d="M243.3,100.1l-2,5c-35.07.61-105.91,33.66-96.61,120.36,10.4,50.51-71.77,170.91-36.13,176.82,2.07.34,4.34-23,3.64-29.05,0,16.58,18,58.91,33.69,56.9,2.25-.29-.12-41.69.66-41.56,3.43,12.18,4.08,40.59,25.25,51.46,5-2.43,2.21-33.94,3.64-33.94,1.82,26.18,13.41,40.23,23.84,47.71,5.3.21,19.87-32.87,19.87-39.26.1,0,11.09,42.52,27.49,47.32,20.94-3.18,30.78-47.37,30.89-47.32,0,6.4,14.57,39.47,19.87,39.26,10.43-7.48,22-21.53,23.84-47.71,1.43,0-1.32,31.51,3.64,33.94,21.17-10.87,21.82-39.28,25.25-51.46.78-.13-1.58,41.27.66,41.56,15.65,2,33.69-40.32,33.69-56.9-.7,6.08,1.56,29.4,3.64,29.05C423.8,396.37,341.63,276,352,225.46c9.3-86.7-61.54-119.75-96.61-120.36l-2-5c-1.69,0-3.38.1-5.07.24C246.68,100.19,245,100.1,243.3,100.1Z" transform="translate(-99.56 -41)"/><path class="cls-3" d="M232,144.29c-30.39-35.5-55.29-36.48-88.09-38.66-10.55-.7,1.27-32.93,42.61-32.93,10,0,4.32-.2-6.38-12.86-17.69-20.92,21.51-22.27,55.13-.58-5-41,31-3.06,40.32,17.73,15.47-22.43,20.47,17.21,4.89,34.3-.29.32-36.6-3.33-47.58,32.09Z" transform="translate(-99.56 -41)"/><path class="cls-3" d="M246.08,257.7h2.29v54.56a6.18,6.18,0,0,0-3.11-.87c-15.56-1.16.46,61.39-22,61.93S194.11,257.33,246.08,257.7Z" transform="translate(-99.56 -41)"/><path class="cls-3" d="M250.66,257.7h-2.29v54.56a6.17,6.17,0,0,1,3.11-.87c15.56-1.16-.46,61.39,22,61.93S302.63,257.33,250.66,257.7Z" transform="translate(-99.56 -41)"/><path class="cls-4" d="M237.71,260l-12.58,8.31a11.7,11.7,0,0,0-3.56,15.55l19.69,33.07c1.55,2.6,3.6,3.9,5.65,3.9s4.07-1.3,5.63-3.9l19.69-33.07a11.7,11.7,0,0,0-3.56-15.55L256.11,260a18.12,18.12,0,0,0-18.4,0Z" transform="translate(-99.56 -41)"/><path class="cls-5" d="M184.14,228.58a17.7,17.7,0,1,0-13.9-20.81A17.7,17.7,0,0,0,184.14,228.58ZM176.63,209a11.18,11.18,0,1,1,21.92,4.36,11.57,11.57,0,0,1-.68,2.21,10.74,10.74,0,0,0-6.78-4,13.19,13.19,0,0,0-13.27,5A11.06,11.06,0,0,1,176.63,209Z" transform="translate(-99.56 -41)"/><path d="M191.09,211.64a10.74,10.74,0,0,1,6.78,4,11.57,11.57,0,0,0,.68-2.21,11.18,11.18,0,1,0-20.73,3.22A13.19,13.19,0,0,1,191.09,211.64Z" transform="translate(-99.56 -41)"/><path class="cls-5" d="M324,207.78a17.7,17.7,0,1,0-13.9,20.81A17.69,17.69,0,0,0,324,207.78Zm-7.58,8.86a13.19,13.19,0,0,0-13.27-5,10.74,10.74,0,0,0-6.78,4,11.57,11.57,0,0,1-.68-2.21,11.18,11.18,0,1,1,20.73,3.22Z" transform="translate(-99.56 -41)"/><path d="M303.11,211.64a10.74,10.74,0,0,0-6.78,4,11.57,11.57,0,0,1-.68-2.21,11.18,11.18,0,1,1,20.73,3.22A13.19,13.19,0,0,0,303.11,211.64Z" transform="translate(-99.56 -41)"/></svg>