<svg id="Layer_11" data-name="Layer 11" xmlns="http://www.w3.org/2000/svg" viewBox="0 0 446.58 379.63"><defs><style>.cls-1{fill:#1b0000;fill-rule:evenodd;opacity:0.2;}.cls-2{fill:#fff;}.cls-3{fill:#404040;}.cls-4{fill:#ffd6bc;}.cls-5{fill:#e27e54;}</style></defs><title>cow</title><path class="cls-1" d="M77.06,250a160,160,0,0,0,27.76,0c-.09.49-.17,1-.25,1.48s-.15.87-.22,1.31c-.36,2.38-.66,4.78-.92,7.19-.07.66-.12,1.33-.18,2q-.26,2.8-.42,5.62c0,.72-.09,1.44-.12,2.15-.11,2.49-.19,5-.19,7.49,0,2.92.09,5.82.24,8.7,0,.76.12,1.51.17,2.27.14,2.14.3,4.27.52,6.38.08.78.2,1.54.29,2.31.26,2.11.53,4.2.86,6.28.11.67.24,1.34.36,2,.38,2.18.79,4.36,1.25,6.51.12.54.25,1.07.37,1.6.52,2.3,1.08,4.58,1.7,6.84.1.38.22.76.32,1.14.68,2.41,1.41,4.81,2.2,7.17l.24.7c.85,2.52,1.76,5,2.72,7.46l.12.3q1.54,3.87,3.26,7.65A160,160,0,0,0,152.25,394a107.46,107.46,0,0,0,1.49,11.95c2.48,13.67,6.71,23,12.11,29.24,24.4,28.12,73.17-8.6,97.55-8.6,8.8,0,20.78,4.79,33.65,9.59,2.58,1,5.21,1.92,7.85,2.85,23.19,8.15,47.7,13.31,60.89-10.85,3.1-5.68,5.58-13,7.27-22.23.58-3.18,1-6.19,1.24-9.12a161.64,161.64,0,0,0,38.77-53.9c.51.5,1,1.05,1.51,1.55a161.54,161.54,0,0,0,14.63-67.31,163.22,163.22,0,0,0-2.27-27,162.86,162.86,0,0,0,25.51-.17c51-4.19,19.06-52.69-11.39-76.86-15.09-12-36.26-9.87-53.79-4.71-1-1.15-2.1-2.29-3.17-3.41,10.15-6.31,27.29-20,33.49-43,9.06-33.58-.11-43.74-8.24-45.29-6.81-1.3-21.89,51.28-55.91,63.24a161.63,161.63,0,0,0-19.27-10.43c-.08.3-.14.6-.22.9a162.23,162.23,0,0,0-136.39-.9l-.05,0c-3.09,1.41-6.11,2.95-9.1,4.55-.8.43-1.58.86-2.37,1.3q-3.81,2.12-7.51,4.44c-.33.21-.69.39-1,.6-35-11-50.43-65-57.33-63.72-8.14,1.56-17.3,11.72-8.24,45.29,6.51,24.16,25,38,34.88,43.83l-.44.48c-.81.87-1.63,1.73-2.42,2.62a108.07,108.07,0,0,0-16.7-3.81l.35-.67v-2H115.95c-3.08,0-6.15,1.25-9.14,1.78-.32.06-.65.61-1,.67-1.21.24-2.41.77-3.6,1.1-.29.08-.58.27-.86.36a42.39,42.39,0,0,0-4.13,1.56c-.26.11-.52.28-.79.4-1.09.5-2.17,1.06-3.22,1.66l-1.06.62a38.75,38.75,0,0,0-3.73,2.57c-1.9,1.51-3.8,3.11-5.69,4.79l0,0c-1.89,1.68-3.76,3.43-5.6,5.25h0c-1.84,1.82-3.64,3.7-5.39,5.63h0q-2.6,2.87-5,5.85l0,0C47.21,218.77,38.8,246.85,77.06,250Zm46.63-78.11a80.16,80.16,0,0,1-12,18.74A139.27,139.27,0,0,0,123.69,171.88Z" transform="translate(-32.71 -66.19)"/><path class="cls-2" d="M84.74,155.7q1.78-.5,3.6-.86C87.12,155.08,85.93,155.36,84.74,155.7Z" transform="translate(-32.71 -66.19)"/><path class="cls-2" d="M89.31,154.65a56.37,56.37,0,0,1,9.14-.82A56,56,0,0,0,89.31,154.65Z" transform="translate(-32.71 -66.19)"/><path class="cls-2" d="M99.19,153.82a74.25,74.25,0,0,1,9.64.65A74.25,74.25,0,0,0,99.19,153.82Z" transform="translate(-32.71 -66.19)"/><path class="cls-2" d="M49.19,184.19q2.41-3,5-5.85C52.48,180.25,50.8,182.21,49.19,184.19Z" transform="translate(-32.71 -66.19)"/><path class="cls-2" d="M54.23,178.32c1.75-1.92,3.55-3.8,5.39-5.63C57.78,174.52,56,176.4,54.23,178.32Z" transform="translate(-32.71 -66.19)"/><path class="cls-2" d="M59.64,172.69c1.84-1.82,3.71-3.57,5.6-5.25C63.35,169.12,61.47,170.87,59.64,172.69Z" transform="translate(-32.71 -66.19)"/><path class="cls-2" d="M65.26,167.41c1.89-1.68,3.79-3.28,5.69-4.79C69.05,164.13,67.15,165.73,65.26,167.41Z" transform="translate(-32.71 -66.19)"/><path class="cls-2" d="M75.74,159.44q1.58-.9,3.22-1.64Q77.32,158.53,75.74,159.44Z" transform="translate(-32.71 -66.19)"/><path class="cls-2" d="M79.75,157.43a42,42,0,0,1,4.13-1.5A42.88,42.88,0,0,0,79.75,157.43Z" transform="translate(-32.71 -66.19)"/><path class="cls-2" d="M71,162.62a38.05,38.05,0,0,1,3.73-2.57A38.05,38.05,0,0,0,71,162.62Z" transform="translate(-32.71 -66.19)"/><path class="cls-2" d="M83.16,191.66c11.54-7.32,21.48-9.31,25.81-9.83-.62,1-1.21,2-1.81,3.06a162.73,162.73,0,0,1,21.71-29.09c-.81.87-1.63,1.73-2.42,2.62a106.92,106.92,0,0,0-17.61-4C104.52,168.69,94.62,180.89,83.16,191.66Z" transform="translate(-32.71 -66.19)"/><path class="cls-3" d="M75.25,197.42a85.19,85.19,0,0,1,8.53-5.8c11.47-10.78,19.3-23.68,26.3-37.68v-2H98.45c-3.08,0-6.15,1.25-9.14,1.78-.32.06-.65.61-1,.67-1.21.24-2.41.77-3.6,1.1-.29.08-.58.27-.86.36a42.39,42.39,0,0,0-4.13,1.56c-.26.11-.52.28-.79.4-1.09.5-2.17,1.06-3.22,1.66l-1.06.62A38.75,38.75,0,0,0,71,162.62c-1.9,1.51-3.8,3.11-5.69,4.79l0,0c-1.89,1.68-3.76,3.43-5.6,5.25h0c-1.84,1.82-3.64,3.7-5.39,5.63h0q-2.6,2.87-5,5.85l0,0h0A38.67,38.67,0,0,0,75.25,197.42Z" transform="translate(-32.71 -66.19)"/><path class="cls-4" d="M83.16,191.66a78.63,78.63,0,0,0-7.91,5.76,93.47,93.47,0,0,0-16.86,18.32s-8.29,14.44,33,5.79c.24-.83.48-1.68.73-2.51s.46-1.44.7-2.15q.74-2.31,1.55-4.58c.31-.86.62-1.72.94-2.58.57-1.51,1.16-3,1.77-4.5.29-.7.56-1.41.86-2.11.84-2,1.72-3.89,2.62-5.81.44-.94.91-1.86,1.37-2.78.56-1.13,1.14-2.25,1.72-3.36s1-2,1.58-2.95,1.26-2.21,1.9-3.31,1.19-2.05,1.81-3.06C104.64,182.35,94.7,184.34,83.16,191.66Z" transform="translate(-32.71 -66.19)"/><path class="cls-2" d="M423.55,162.62c-15.09-12-36.26-9.87-53.79-4.71A163,163,0,0,1,388,182.19c9.21,1.63,30.14,8.07,48.17,33.54,0,0,8,13.91-30.69,6.28a161.27,161.27,0,0,1,4,17.64,162.86,162.86,0,0,0,25.51-.17C486,235.3,454,186.79,423.55,162.62Z" transform="translate(-32.71 -66.19)"/><path class="cls-4" d="M436.12,215.74c-18-25.47-39-31.92-48.17-33.54A161,161,0,0,1,405.43,222C444.13,229.65,436.12,215.74,436.12,215.74Z" transform="translate(-32.71 -66.19)"/><path class="cls-2" d="M366.58,154.49c10.15-6.31,27.29-20,33.49-43,9.06-33.58-.11-43.74-8.24-45.29-6.81-1.3-21.89,51.28-55.91,63.24A163,163,0,0,1,366.58,154.49Z" transform="translate(-32.71 -66.19)"/><path class="cls-2" d="M120.45,421.39c-.37-2.1-.67-4.23-.94-6.37Q119.9,418.24,120.45,421.39Z" transform="translate(-32.71 -66.19)"/><path class="cls-2" d="M370.44,436.68c-.34,1.14-.72,2.27-1.1,3.39C369.72,438.94,370.1,437.82,370.44,436.68Z" transform="translate(-32.71 -66.19)"/><path class="cls-2" d="M374.69,417.38c-.12.84-.24,1.69-.37,2.52Q374.52,418.64,374.69,417.38Z" transform="translate(-32.71 -66.19)"/><path class="cls-2" d="M118.73,406.5c-.14-2.4-.22-4.82-.22-7.26C118.51,401.68,118.59,404.1,118.73,406.5Z" transform="translate(-32.71 -66.19)"/><path class="cls-2" d="M372.44,429.22q-.61,2.56-1.33,5.09Q371.83,431.78,372.44,429.22Z" transform="translate(-32.71 -66.19)"/><path class="cls-2" d="M373.71,423.28c-.16.85-.31,1.7-.49,2.54C373.4,425,373.55,424.13,373.71,423.28Z" transform="translate(-32.71 -66.19)"/><path class="cls-2" d="M375.83,405.36c0,.68-.08,1.35-.13,2C375.75,406.71,375.8,406,375.83,405.36Z" transform="translate(-32.71 -66.19)"/><path class="cls-2" d="M375.4,411.41c-.08.8-.16,1.6-.25,2.39C375.24,413,375.32,412.21,375.4,411.41Z" transform="translate(-32.71 -66.19)"/><path class="cls-2" d="M119.37,413.9c-.23-2-.39-3.93-.53-5.91C119,410,119.14,411.94,119.37,413.9Z" transform="translate(-32.71 -66.19)"/><path class="cls-2" d="M88.72,301.13c-.47-2.15-.87-4.33-1.25-6.51C87.85,296.8,88.26,299,88.72,301.13Z" transform="translate(-32.71 -66.19)"/><path class="cls-2" d="M87.11,292.61c-.33-2.08-.6-4.18-.86-6.28C86.5,288.43,86.77,290.53,87.11,292.61Z" transform="translate(-32.71 -66.19)"/><path class="cls-2" d="M85.21,259.19c0-.72.08-1.44.12-2.15C85.29,257.75,85.24,258.47,85.21,259.19Z" transform="translate(-32.71 -66.19)"/><path class="cls-2" d="M85.75,251.41c.06-.66.12-1.33.18-2C85.87,250.09,85.82,250.75,85.75,251.41Z" transform="translate(-32.71 -66.19)"/><path class="cls-2" d="M86.86,242.23c.07-.44.15-.87.22-1.31C87,241.36,86.92,241.8,86.86,242.23Z" transform="translate(-32.71 -66.19)"/><path class="cls-2" d="M85.26,275.37c-.15-2.88-.24-5.78-.24-8.7C85,269.59,85.11,272.49,85.26,275.37Z" transform="translate(-32.71 -66.19)"/><path class="cls-2" d="M93.31,317.87c-.79-2.37-1.51-4.76-2.2-7.17Q92.13,314.32,93.31,317.87Z" transform="translate(-32.71 -66.19)"/><path class="cls-2" d="M90.79,309.56c-.62-2.26-1.18-4.54-1.7-6.84Q89.87,306.17,90.79,309.56Z" transform="translate(-32.71 -66.19)"/><path class="cls-2" d="M316.44,119.93a162.23,162.23,0,0,0-136.39-.9c11.17,41.43-12.6,93.41-27.09,130.34C140.76,280.44,123.71,311,99.65,334a160,160,0,0,0,35.1,49.52c-4.43-64.07,60.67-68.84,111.14-68.84,51.2,0,117.44,4.92,110.89,71.67a161.64,161.64,0,0,0,38.77-53.9c-23.25-22.77-39.87-52.66-51.81-83.07C329.35,212.7,305.85,161.2,316.44,119.93ZM197.71,291.06a25.72,25.72,0,1,1,26.61-24.79A25.72,25.72,0,0,1,197.71,291.06Zm72.46-24.79a25.71,25.71,0,1,1,26.61,24.79A25.71,25.71,0,0,1,270.18,266.27Z" transform="translate(-32.71 -66.19)"/><path class="cls-2" d="M96.27,326c-1-2.46-1.87-4.94-2.72-7.46Q94.82,322.34,96.27,326Z" transform="translate(-32.71 -66.19)"/><path class="cls-2" d="M99.65,334q-1.73-3.77-3.26-7.65Q97.93,330.2,99.65,334Z" transform="translate(-32.71 -66.19)"/><path class="cls-2" d="M86,284c-.23-2.11-.38-4.24-.52-6.38C85.57,279.77,85.73,281.9,86,284Z" transform="translate(-32.71 -66.19)"/><path class="cls-2" d="M91.41,221.53c-41.32,8.65-33-5.79-33-5.79a93.47,93.47,0,0,1,16.86-18.32,38.67,38.67,0,0,1-26.1-13.18c-19.44,24-27.85,52.11,10.41,55.25a160,160,0,0,0,27.76,0A160.35,160.35,0,0,1,91.41,221.53Z" transform="translate(-32.71 -66.19)"/><path class="cls-2" d="M95.33,209.71c-.32.85-.63,1.72-.94,2.58C94.7,211.42,95,210.56,95.33,209.71Z" transform="translate(-32.71 -66.19)"/><path class="cls-2" d="M92.84,216.87c-.23.72-.47,1.43-.7,2.15C92.37,218.29,92.61,217.58,92.84,216.87Z" transform="translate(-32.71 -66.19)"/><path class="cls-2" d="M98,203.1c-.3.7-.57,1.4-.86,2.11C97.39,204.51,97.66,203.8,98,203.1Z" transform="translate(-32.71 -66.19)"/><path class="cls-2" d="M105.26,188.2c-.54,1-1.06,2-1.58,2.95C104.2,190.16,104.72,189.17,105.26,188.2Z" transform="translate(-32.71 -66.19)"/><path class="cls-2" d="M102,194.51c-.46.92-.93,1.85-1.37,2.78C101,196.36,101.49,195.44,102,194.51Z" transform="translate(-32.71 -66.19)"/><path class="cls-2" d="M180,119a162.5,162.5,0,0,0-20,10.89c-35-11-50.43-65-57.33-63.72-8.14,1.56-17.3,11.72-8.24,45.29,6.51,24.16,25,38,34.88,43.83A162.89,162.89,0,0,1,180,119Z" transform="translate(-32.71 -66.19)"/><path class="cls-3" d="M180.05,119h0l-.05,0a162.89,162.89,0,0,0-50.69,36.28l-.44.48a162.73,162.73,0,0,0-21.71,29.09c-.64,1.09-1.29,2.19-1.9,3.31s-1.06,2-1.58,2.95-1.16,2.24-1.72,3.36c-.46.92-.93,1.85-1.37,2.78-.91,1.92-1.79,3.85-2.62,5.81-.3.7-.57,1.4-.86,2.11-.61,1.49-1.2,3-1.77,4.5-.32.85-.63,1.72-.94,2.58q-.81,2.28-1.55,4.58c-.23.72-.47,1.43-.7,2.15s-.49,1.67-.73,2.51a160.35,160.35,0,0,0-4.09,17.92c-.09.49-.17,1-.25,1.48s-.15.87-.22,1.31c-.36,2.38-.66,4.78-.92,7.19-.07.66-.12,1.33-.18,2q-.26,2.8-.42,5.62c0,.72-.09,1.44-.12,2.15-.11,2.49-.19,5-.19,7.49,0,2.92.09,5.82.24,8.7,0,.76.12,1.51.17,2.27.14,2.14.3,4.27.52,6.38.08.78.2,1.54.29,2.31.26,2.11.53,4.2.86,6.28.11.67.24,1.34.36,2,.38,2.18.79,4.36,1.25,6.51.12.54.25,1.07.37,1.6.52,2.3,1.08,4.58,1.7,6.84.1.38.22.76.32,1.14.68,2.41,1.41,4.81,2.2,7.17l.24.7c.85,2.52,1.76,5,2.72,7.46l.12.3q1.54,3.87,3.26,7.65h0C123.71,311,140.76,280.44,153,249.36,167.46,212.43,191.22,160.45,180.05,119Z" transform="translate(-32.71 -66.19)"/><path class="cls-3" d="M388,182.19a163,163,0,0,0-18.19-24.28c-1-1.15-2.1-2.29-3.17-3.41A163.19,163.19,0,0,0,316.66,119c-.08.3-.14.6-.22.9-10.59,41.28,12.91,92.77,27.31,129.44,11.93,30.41,28.56,60.29,51.81,83.07.51.5,1,1.05,1.51,1.55a161.54,161.54,0,0,0,14.63-67.31,163.22,163.22,0,0,0-2.27-27A161.49,161.49,0,0,0,388,182.19Z" transform="translate(-32.71 -66.19)"/><path class="cls-3" d="M321.57,264.43a25.71,25.71,0,1,0-24.78,26.63A25.71,25.71,0,0,0,321.57,264.43Zm-25.93-7.7a9.18,9.18,0,0,1,8.85,9.5,9.08,9.08,0,0,1-1.38,4.44A11.25,11.25,0,0,0,292.73,263a9,9,0,0,0-6.52,2.1A9.15,9.15,0,0,1,295.64,256.73Z" transform="translate(-32.71 -66.19)"/><path class="cls-2" d="M303.11,270.66a9.08,9.08,0,0,0,1.38-4.44,9.16,9.16,0,0,0-18.28-1.15,9,9,0,0,1,6.52-2.1A11.25,11.25,0,0,1,303.11,270.66Z" transform="translate(-32.71 -66.19)"/><path class="cls-3" d="M224.32,266.27a25.71,25.71,0,1,0-26.61,24.79A25.71,25.71,0,0,0,224.32,266.27Zm-25.46-9.54a9.15,9.15,0,0,1,9.43,8.35,9,9,0,0,0-6.53-2.1,11.25,11.25,0,0,0-10.38,7.69,9.08,9.08,0,0,1-1.38-4.44A9.18,9.18,0,0,1,198.86,256.73Z" transform="translate(-32.71 -66.19)"/><path class="cls-2" d="M201.77,263a9,9,0,0,1,6.53,2.1,9.16,9.16,0,1,0-16.9,5.59A11.25,11.25,0,0,1,201.77,263Z" transform="translate(-32.71 -66.19)"/><path class="cls-4" d="M148.34,424.69c24.4,28.12,73.17-8.6,97.55-8.6,8.8,0,20.78,4.79,33.65,9.59,2.58,1,5.21,1.92,7.85,2.85,23.19,8.15,47.7,13.31,60.89-10.85,3.1-5.68,5.58-13,7.27-22.23.58-3.18,1-6.19,1.24-9.12,6.55-66.75-59.69-71.67-110.89-71.67-50.47,0-115.57,4.77-111.14,68.84a107.46,107.46,0,0,0,1.49,11.95C138.72,409.12,142.94,418.47,148.34,424.69Zm160.92-67.3A12.25,12.25,0,1,1,297,369.64,12.25,12.25,0,0,1,309.26,357.39Zm-133,0A12.25,12.25,0,1,1,164,369.64,12.25,12.25,0,0,1,176.26,357.39Z" transform="translate(-32.71 -66.19)"/><circle class="cls-5" cx="143.55" cy="303.46" r="12.25"/><circle class="cls-5" cx="276.55" cy="303.46" r="12.25"/></svg>