<svg id="Layer_1" data-name="Layer 1" xmlns="http://www.w3.org/2000/svg" viewBox="0 0 429.62 387.24"><defs><style>.cls-1{fill:#1b0000;opacity:0.2;}.cls-1,.cls-2,.cls-3,.cls-4,.cls-5{fill-rule:evenodd;}.cls-2{fill:#4c210c;}.cls-3{fill:#5c270c;}.cls-4{fill:#c09666;}.cls-5{fill:#844f34;}.cls-6{fill:#fff;}</style></defs><title>dog</title><path class="cls-1" d="M328,92.39c-14.88-10.81-34.81-17.51-62-18-27.16.51-47.09,7.2-62,18-99.4,23-190.24,315.52-115.14,352.06,40.87,19.88,42.18-20,46.57-78.79,24.75,35.42,77.52,61.92,130.55,63,53-1.09,105.8-27.58,130.56-63,4.39,58.8,5.7,98.67,46.57,78.78C518.22,407.91,427.38,115.37,328,92.39Z" transform="translate(-41.19 -62.38)"/><path class="cls-2" d="M423.12,432.45C500.19,395,402.47,87.72,300.1,79.1a235,235,0,0,0-17,21.36A29.7,29.7,0,0,0,290,141.89C427.77,248,336.42,474.63,423.12,432.45Z" transform="translate(-41.19 -62.38)"/><path class="cls-3" d="M435.57,413.59C475.15,337.86,389.14,92.22,298,79l-1.6,2.23a29.71,29.71,0,0,0,6.93,41.43C440.62,228.37,350.38,453.8,435.57,413.59Z" transform="translate(-41.19 -62.38)"/><path class="cls-2" d="M68.88,432.45C-8.2,395,89.52,87.72,191.9,79.1a232.32,232.32,0,0,1,17,21.36A29.7,29.7,0,0,1,202,141.89C64.22,248,155.58,474.63,68.88,432.45Z" transform="translate(-41.19 -62.38)"/><path class="cls-3" d="M56.42,413.59C16.85,337.86,102.86,92.22,194,79l1.6,2.23a29.7,29.7,0,0,1-6.93,41.43C51.39,228.37,141.62,453.8,56.42,413.59Z" transform="translate(-41.19 -62.38)"/><path class="cls-4" d="M246,416.67h0c89.53-1.84,178.36-76.08,132.78-143.47C339.12,214.56,378.59,64.85,246,62.38h0C113.4,64.85,152.87,214.56,113.23,273.2,67.65,340.59,156.47,414.83,246,416.67Z" transform="translate(-41.19 -62.38)"/><path class="cls-3" d="M332.53,341c0,35-41.7,63.43-93.12,63.43S146.24,376,146.24,341s41.7-63.44,93.16-63.44S332.53,305.92,332.53,341Z" transform="translate(-41.19 -62.38)"/><path class="cls-5" d="M303.26,328.49c0,14.7-17.48,26.6-39.06,26.6s-39.07-11.9-39.07-26.6,17.49-26.61,39.07-26.61S303.26,313.8,303.26,328.49Z" transform="translate(-41.19 -62.38)"/><path class="cls-6" d="M178.16,236.21A19.71,19.71,0,1,0,162.66,213,19.72,19.72,0,0,0,178.16,236.21Zm-8.36-21.77a12.45,12.45,0,1,1,24.42,4.86,12.9,12.9,0,0,1-.76,2.45,12,12,0,0,0-7.56-4.43,14.69,14.69,0,0,0-14.79,5.56A12.33,12.33,0,0,1,169.79,214.45Z" transform="translate(-41.19 -62.38)"/><path d="M185.9,217.33a12,12,0,0,1,7.56,4.43,12.9,12.9,0,0,0,.76-2.45,12.45,12.45,0,1,0-23.1,3.59A14.69,14.69,0,0,1,185.9,217.33Z" transform="translate(-41.19 -62.38)"/><path class="cls-6" d="M329.34,213a19.72,19.72,0,1,0-15.49,23.18A19.72,19.72,0,0,0,329.34,213Zm-8.45,9.87a14.69,14.69,0,0,0-14.79-5.56,12,12,0,0,0-7.56,4.43,12.93,12.93,0,0,1-.76-2.45,12.45,12.45,0,1,1,23.1,3.59Z" transform="translate(-41.19 -62.38)"/><path d="M306.11,217.33a12,12,0,0,0-7.56,4.43,12.93,12.93,0,0,1-.76-2.45,12.45,12.45,0,1,1,23.1,3.59A14.69,14.69,0,0,0,306.11,217.33Z" transform="translate(-41.19 -62.38)"/></svg>