<svg id="elephant" xmlns="http://www.w3.org/2000/svg" viewBox="0 0 433.95 402.84"><defs><style>.cls-1{fill:#1b0000;opacity:0.2;}.cls-1,.cls-2,.cls-3,.cls-4,.cls-5,.cls-6{fill-rule:evenodd;}.cls-2{fill:#bfc7d3;}.cls-3{fill:#b4bbc5;}.cls-4,.cls-7{fill:#fff;}.cls-5{fill:#b4b8c3;}.cls-6{fill:#8d8f92;}</style></defs><title>elephant</title><path class="cls-1" d="M128.76,283.11c6.63,17.46,21.83,33,42.93,45h0A170.6,170.6,0,0,0,197.28,340c-15.71,11-41.6,7.42-41.73,10.2-.42,8.6,36.38,20.51,62.46.19,8.72,42.33,32.18,83,64.09,97.88,44.66,20.82,134.79,5.84,152.41-40.88,4.28-3.73,3.06-12.29-10.27-8.94,1.16-8.09-1.67-19.61-9.59-10.38-13.49,14.75-39.18,16.88-58,15.09-26.24-2.52-36.11-23.94-39.65-48.7,25.49,15.18,57.61,4.24,57.22-3.8-.13-2.81-26.5.83-42.16-10.51a171.82,171.82,0,0,0,26-12h0c21.08-12,36.28-27.57,42.92-45,21.21,2.57,45.6,15,65.28-20,14-24.85-16.9-45.94-17.42-63.23-1.45-48.89,43.58-75.74,14-107.85-23.43-25.43-61.11,4.5-100.75,12.39-3.64.7-6.81,1.47-9.59,2.29A142.61,142.61,0,0,0,264.9,65.08a142.6,142.6,0,0,0-87.71,41.75,99.39,99.39,0,0,0-9.81-2.36C127.74,96.57,90,66.65,66.62,92.08c-29.58,32.11,15.45,59,14,107.85-.51,17.28-31.42,38.37-17.42,63.23C83,298.26,107.48,285.61,128.76,283.11Z" transform="translate(-39.03 -54.58)"/><path class="cls-2" d="M424.32,296.61c5.63-.23,11-.65,16-1.24h0C435.28,296,429.95,296.39,424.32,296.61Z" transform="translate(-39.03 -54.58)"/><path class="cls-3" d="M63.11,189.43c-.51,17.28-31.42,38.37-17.42,63.23,23.69,42.06,54.2,15.57,77.77,20.11a80.92,80.92,0,0,0,17.27,1.4c-10.68-10.47-17.6-22.4-19.67-35.18a49.5,49.5,0,0,1-.71-8.07c0-85.6,101.16-123.15,29.52-137C110.24,86.07,72.55,56.15,49.12,81.58,19.54,113.69,64.56,140.54,63.11,189.43Z" transform="translate(-39.03 -54.58)"/><path class="cls-3" d="M431.39,189.43c.52,17.28,31.42,38.37,17.42,63.23-23.69,42.06-54.19,15.57-77.77,20.11a81,81,0,0,1-17.27,1.4c10.67-10.47,17.6-22.4,19.67-35.18a50.29,50.29,0,0,0,.71-8.07c0-85.6-101.17-123.15-29.52-137C384.27,86.07,422,56.15,445.38,81.58,475,113.69,429.94,140.54,431.39,189.43Z" transform="translate(-39.03 -54.58)"/><path class="cls-2" d="M247.4,54.58A143.06,143.06,0,0,0,118.3,197a145.75,145.75,0,0,0,1.48,20.56c-7.87,10.86-12.24,22.82-12.24,35.38,0,25.41,17.88,48.36,46.65,64.77h0a178.23,178.23,0,0,0,35.15,15.06l.89.28q7.25,2.23,15,4l1.72.38c1.92.42,27.35,1.93,40.5,2.84,13.15-.91,38.58-2.41,40.5-2.84l1.72-.38q7.69-1.78,15-4l.89-.28a178.77,178.77,0,0,0,35.15-15.06h0c28.77-16.41,46.65-39.36,46.65-64.77,0-12.56-4.37-24.52-12.24-35.38A144.72,144.72,0,0,0,376.5,197,143.06,143.06,0,0,0,247.4,54.58Z" transform="translate(-39.03 -54.58)"/><path class="cls-4" d="M214.54,323.45c-23.81,41.69-77,26.54-76.49,16.21.18-3.73,46.5,3.91,52.79-27.14a13.34,13.34,0,1,1,26.15,5.3,13.68,13.68,0,0,1-1.46,3.91Z" transform="translate(-39.03 -54.58)"/><path class="cls-4" d="M280.26,323.9c23.8,41.69,77,26.54,76.49,16.21-.18-3.73-46.5,3.91-52.79-27.14a13.34,13.34,0,1,0-24.69,9.21Z" transform="translate(-39.03 -54.58)"/><path class="cls-5" d="M397.14,377.53c-13.49,14.75-39.18,16.88-58,15.09-56.68-5.44-37-99-42.08-124.17-6.36-31.69-77.81-27-93.45-5.91-21.21,56.55,8.47,150.78,60.93,175.2,44.66,20.82,134.79,5.84,152.41-40.88,4.28-3.73,3.06-12.29-10.27-8.94C407.89,379.82,405.06,368.3,397.14,377.53Z" transform="translate(-39.03 -54.58)"/><path class="cls-6" d="M354.52,403.55s1,8.14-1.66,20.76c-2.67,12.86-3.93,13.78-3.94,13.78l-1-1.57s.63-.49,3.14-12.6c2.56-12.34,1.63-20.19,1.63-20.21Z" transform="translate(-39.03 -54.58)"/><path class="cls-6" d="M324.38,399.23s-.72,9.89-9.1,22.81-16,17.69-16.05,17.7l-1-1.57s7.37-4.61,15.5-17.15,8.8-21.91,8.8-21.93Z" transform="translate(-39.03 -54.58)"/><path class="cls-6" d="M300.32,378.88a111.92,111.92,0,0,1-31.85,20c-19.41,8-26.09,9-26.11,9L242,406s6.49-.92,25.7-8.89A110,110,0,0,0,299,377.53Z" transform="translate(-39.03 -54.58)"/><path class="cls-6" d="M282.19,340.89s-.06,0-.21.15c-1.95,1.37-12.2,8.61-34.14,13.82-24.13,5.73-29.14,3-29.16,3l.9-1.65s4.4,2.42,27.84-3.15C269,347.9,279,340.84,280.89,339.5c.21-.15.34-.24.44-.29Z" transform="translate(-39.03 -54.58)"/><path class="cls-6" d="M277.64,290.05a134.34,134.34,0,0,1-33.39,8.36,174.88,174.88,0,0,1-37.46.66l.16-1.87a172.67,172.67,0,0,0,37.06-.65,132.43,132.43,0,0,0,32.92-8.23Z" transform="translate(-39.03 -54.58)"/><path class="cls-7" d="M175,212.56a20.3,20.3,0,1,0-15.95-23.87A20.3,20.3,0,0,0,175,212.56Zm-8.61-22.41a12.82,12.82,0,1,1,25.14,5,13.27,13.27,0,0,1-.78,2.53,12.32,12.32,0,0,0-7.78-4.56,15.13,15.13,0,0,0-15.22,5.73A12.69,12.69,0,0,1,166.43,190.15Z" transform="translate(-39.03 -54.58)"/><path d="M183,193.12a12.32,12.32,0,0,1,7.78,4.56,13.27,13.27,0,0,0,.78-2.53,12.82,12.82,0,1,0-23.78,3.7A15.13,15.13,0,0,1,183,193.12Z" transform="translate(-39.03 -54.58)"/><path class="cls-7" d="M335.41,188.69a20.3,20.3,0,1,0-15.95,23.87A20.29,20.29,0,0,0,335.41,188.69Zm-8.7,10.16a15.13,15.13,0,0,0-15.22-5.73,12.32,12.32,0,0,0-7.78,4.56,13.27,13.27,0,0,1-.78-2.53,12.82,12.82,0,1,1,23.78,3.7Z" transform="translate(-39.03 -54.58)"/><path d="M311.49,193.12a12.32,12.32,0,0,0-7.78,4.56,13.27,13.27,0,0,1-.78-2.53,12.82,12.82,0,1,1,23.78,3.7A15.13,15.13,0,0,0,311.49,193.12Z" transform="translate(-39.03 -54.58)"/></svg>