<svg id="fox" xmlns="http://www.w3.org/2000/svg" viewBox="0 0 406 383.31"><defs><style>.cls-1{fill:#1b0000;opacity:0.2;}.cls-1,.cls-2,.cls-3,.cls-4,.cls-5,.cls-6{fill-rule:evenodd;}.cls-2{fill:#e67a25;}.cls-3{fill:#b95e28;}.cls-4,.cls-7{fill:#fff;}.cls-6{fill:#ee9921;}</style></defs><title>fox</title><path class="cls-1" d="M157.6,265.64c-1.94,29.73,2.14,64.79-20.25,83.12-1.12.92-2.17,1.82-3.17,2.71-17.32,1-32.6,5.66-39,12l21.45,6.91c-12.2,9.08-31,31.53-20.8,54.53l38.73-20c-13.22,17.33-14.2,26-11.51,42.77,22.47-14,74.6-26.31,95.95-28.29,7.91,9.4,33.72,26.71,46.66,26.71s38.75-17.31,46.66-26.71c21.34,2,73.48,14.3,95.95,28.29,2.69-16.8,1.71-25.44-11.51-42.77l38.73,20c10.19-23-8.6-45.45-20.8-54.53l21.45-6.91c-6.36-6.32-21.64-11-39-12-1-.89-2-1.79-3.16-2.71-22.6-18.51-18.24-54-20.31-83.94,110.32-26.91,82.35-185.64,81.39-190.89h0l0-.14-.49.12-.57.15-.36.1-.91.25-.67.19-1.07.31-.88.27-1.3.4-1.08.35-1.52.5-1.26.43-1.73.6-1.44.53-1.91.71-1.63.63-2.06.81-1.8.74-2.2.92-2,.86-2.34,1-2.09,1-2.48,1.17-2.2,1.08-2.6,1.3-2.31,1.2-2.71,1.45-2.41,1.33-2.81,1.59-2.49,1.46L403,97,400.4,98.6q-1.46.92-2.93,1.89l-2.64,1.76q-1.48,1-3,2-1.34.93-2.68,1.9c-1,.72-2,1.47-3,2.22s-1.8,1.35-2.71,2-2,1.58-3.05,2.39-1.83,1.46-2.75,2.21-2,1.7-3.06,2.56-1.84,1.57-2.76,2.38-2,1.82-3.06,2.75-1.84,1.68-2.76,2.54-2,1.95-3.05,2.94-1.83,1.78-2.74,2.71-2,2.08-3,3.14-1.81,1.9-2.72,2.88-2,2.22-3,3.34-1.79,2-2.68,3.06-2,2.37-2.95,3.56-1.75,2.13-2.61,3.23-1.93,2.52-2.89,3.79-1.71,2.25-2.55,3.41-1.88,2.68-2.82,4c-.82,1.19-1.65,2.36-2.46,3.58-.93,1.4-1.83,2.85-2.74,4.28-.79,1.25-1.59,2.48-2.37,3.76-.9,1.48-1.77,3-2.65,4.54-.76,1.31-1.52,2.59-2.26,3.93-.87,1.58-1.71,3.23-2.56,4.86-.51,1-1,1.91-1.53,2.9-16.44-9-34.61-14.58-52.66-15.54-19.1,1-38.35,7.19-55.54,17.11h0l-.21-.4c-.68-1.37-1.39-2.67-2.09-4-.86-1.64-1.71-3.31-2.59-4.91-.73-1.32-1.49-2.59-2.24-3.89-.89-1.54-1.76-3.09-2.67-4.58-.77-1.27-1.57-2.49-2.36-3.73-.92-1.44-1.82-2.9-2.76-4.3-.81-1.21-1.63-2.38-2.45-3.56-.94-1.36-1.87-2.73-2.83-4-.84-1.16-1.69-2.27-2.54-3.39-1-1.28-1.92-2.57-2.9-3.81s-1.73-2.15-2.6-3.21-2-2.42-3-3.58-1.77-2-2.66-3-2-2.26-3-3.36-1.8-1.92-2.71-2.87-2-2.12-3-3.15-1.82-1.81-2.73-2.7-2-2-3.06-3-1.83-1.7-2.75-2.53-2-1.85-3.07-2.75-1.84-1.59-2.76-2.37-2-1.73-3.06-2.57-1.83-1.48-2.74-2.21-2-1.61-3.05-2.39-1.81-1.38-2.72-2-2-1.5-3-2.22-1.79-1.28-2.68-1.9-2-1.38-3-2.05l-2.63-1.75q-1.48-1-2.94-1.89L124.79,97l-2.88-1.74-2.49-1.46-2.81-1.59-2.4-1.33-2.71-1.45-2.31-1.2-2.6-1.3-2.21-1.09-2.47-1.17-2.09-1-2.34-1-2-.85-2.21-.92-1.8-.74-2.07-.81-1.63-.63L85.91,78l-1.44-.53-1.73-.6-1.26-.43L80,75.93l-1.08-.35-1.3-.4-.88-.27-1.07-.31-.67-.19L74,74.16l-.36-.1-.57-.15-.49-.12S41.17,240.93,157.6,265.64Z" transform="translate(-53 -64.35)"/><path class="cls-2" d="M297.74,190C344.22,86.31,439.38,64.35,439.38,64.35s33.19,176.17-94.55,193.54Z" transform="translate(-53 -64.35)"/><path class="cls-3" d="M308.81,202.31C362,105.47,420.48,97.52,420.48,97.52s29.84,107.11-85.89,148.12Z" transform="translate(-53 -64.35)"/><path class="cls-3" d="M439.4,64.48C414.27,73.06,346,103.1,308.26,185.27q-3.17-2.06-6.44-4c47.73-96.25,137.55-117,137.55-117Z" transform="translate(-53 -64.35)"/><path class="cls-2" d="M198.52,190C152,86.31,56.88,64.35,56.88,64.35S23.7,240.52,151.43,257.88Z" transform="translate(-53 -64.35)"/><path class="cls-3" d="M187.45,202.31C134.25,105.47,75.77,97.52,75.77,97.52S45.94,204.63,161.67,245.64Z" transform="translate(-53 -64.35)"/><path class="cls-3" d="M56.85,64.48C82,73.06,150.3,103.1,188,185.27q3.17-2.06,6.44-4c-47.73-96.25-137.55-117-137.55-117S56.87,64.39,56.85,64.48Z" transform="translate(-53 -64.35)"/><path class="cls-2" d="M150.85,221.64c-19.8,29.82,3.09,91.19-29.25,117.68C58.72,390.84,190.53,394,247.55,406.17c57-12.2,193.66-15.34,130.77-66.85-32.34-26.49-9.45-87.86-29.25-117.68-21.51-32.4-60.62-55.37-99.11-57.4C211.48,166.27,172.36,189.24,150.85,221.64Z" transform="translate(-53 -64.35)"/><path class="cls-4" d="M250,387.33c-13.46-3.59-49.48,4.7-63.46-19.15-20.71-35.35-91.25-29.85-107-14.17l21.45,6.91c-12.2,9.08-31,31.53-20.8,54.53l38.73-20c-13.22,17.33-14.2,26-11.51,42.77,22.47-14,74.6-26.31,95.95-28.29,7.91,9.4,33.72,26.71,46.66,26.71s38.75-17.31,46.66-26.71c21.34,2,73.48,14.3,95.95,28.29,2.69-16.8,1.71-25.44-11.51-42.77l38.73,20c10.19-23-8.6-45.45-20.8-54.53L420.44,354c-15.77-15.67-86.31-21.18-107,14.17C299.44,392,263.43,383.74,250,387.33Z" transform="translate(-53 -64.35)"/><path class="cls-5" d="M250,378.38c-42.42-.44-42.05,14.92-19.86,30.58A146.52,146.52,0,0,0,250,420.89,146.5,146.5,0,0,0,269.82,409C292,393.3,292.38,377.94,250,378.38Z" transform="translate(-53 -64.35)"/><path class="cls-6" d="M160.8,288.13c-2.43,3.17,58.68-26.66,74.69,35.87,0-.13-11.32-20.69-15.15-12.82-9,18.44-45.37,13.94-40.16-12.55C181.59,291.47,162,287.57,160.8,288.13Z" transform="translate(-53 -64.35)"/><path class="cls-6" d="M342.66,288.13C345.08,291.3,284,261.47,268,324c0-.13,11.32-20.69,15.15-12.82,9,18.44,45.37,13.94,40.15-12.55C321.86,291.47,341.49,287.57,342.66,288.13Z" transform="translate(-53 -64.35)"/><path class="cls-7" d="M196.47,318.07a15.52,15.52,0,1,0-12.2-18.26A15.53,15.53,0,0,0,196.47,318.07Zm-6.59-17.14a9.8,9.8,0,1,1,19.23,3.83,10.16,10.16,0,0,1-.6,1.93,9.43,9.43,0,0,0-6-3.49,11.57,11.57,0,0,0-11.64,4.38A9.71,9.71,0,0,1,189.88,300.93Z" transform="translate(-53 -64.35)"/><path d="M202.56,303.2a9.43,9.43,0,0,1,6,3.49,10.16,10.16,0,0,0,.6-1.93,9.8,9.8,0,1,0-18.19,2.83A11.57,11.57,0,0,1,202.56,303.2Z" transform="translate(-53 -64.35)"/><path class="cls-7" d="M315.52,299.81a15.53,15.53,0,1,0-12.2,18.26A15.53,15.53,0,0,0,315.52,299.81Zm-6.65,7.77a11.57,11.57,0,0,0-11.64-4.38,9.42,9.42,0,0,0-6,3.49,10.16,10.16,0,0,1-.6-1.93,9.8,9.8,0,1,1,18.19,2.83Z" transform="translate(-53 -64.35)"/><path d="M297.22,303.2a9.42,9.42,0,0,0-6,3.49,10.16,10.16,0,0,1-.6-1.93,9.8,9.8,0,1,1,18.19,2.83A11.57,11.57,0,0,0,297.22,303.2Z" transform="translate(-53 -64.35)"/></svg>