<svg id="monkey" xmlns="http://www.w3.org/2000/svg" viewBox="0 0 434 387.82"><defs><style>.cls-1{fill:#1b0000;opacity:0.2;}.cls-1,.cls-2,.cls-3,.cls-4,.cls-5,.cls-6,.cls-7,.cls-8,.cls-9{fill-rule:evenodd;}.cls-2{fill:#be6534;}.cls-3{fill:#a6592d;}.cls-4{fill:#c96c38;}.cls-5{fill:#f6dcc0;}.cls-6{fill:#9d4d24;}.cls-7{fill:#74492f;}.cls-8{fill:#7d5136;}.cls-9{fill:#dac1a8;}.cls-10{fill:#fff;}</style></defs><title>monkey</title><path class="cls-1" d="M444.33,163.71c-9.62-6.45-19.74-8.46-29-6.68l-1.21-1.92-.76-1.16q-.75-1.15-1.52-2.3c-.26-.39-.52-.78-.79-1.17-.51-.74-1-1.47-1.55-2.21-.28-.39-.56-.8-.86-1.21l-1.57-2.14-.91-1.2c-.52-.69-1-1.36-1.58-2l-1-1.24c-.53-.68-1.08-1.34-1.63-2l-1-1.2c-.54-.64-1.08-1.29-1.63-1.92l-1.08-1.25c-.55-.63-1.1-1.25-1.67-1.87L395.52,131c-.55-.6-1.11-1.2-1.68-1.8-.39-.42-.77-.82-1.17-1.23q-.84-.87-1.69-1.73L389.74,125c-.55-.55-1.12-1.09-1.68-1.63l-1.3-1.25L385,120.47l-1.32-1.2L382,117.73l-1.39-1.2c-.59-.51-1.18-1-1.78-1.5l-1.41-1.17-1.78-1.45-1.47-1.14-1.82-1.41-1.47-1.1c-.63-.47-1.25-.92-1.89-1.38l-1.47-1L365.54,105,364,104l-1.86-1.23-1.68-1.08-1.85-1.16-1.69-1L355,98.35l-1.74-1-1.91-1.07-1.73-.94-2-1-1.78-.91c-.65-.33-1.3-.66-2-1l-1.84-.89-1.94-.92-1.88-.85-2-.87-1.91-.8-2-.83-1.89-.74-2-.79L326.58,85l-2.06-.74-1.93-.66-2.1-.69-2-.61-2.09-.64c-.7-.21-1.41-.4-2.12-.59s-1.32-.38-2-.55-1.47-.39-2.22-.57-1.3-.34-2-.49-1.51-.35-2.27-.53L304,78.51,301.69,78l-1.94-.39c-.76-.14-1.51-.27-2.27-.39s-1.34-.25-2-.35-1.49-.23-2.24-.35l-2.07-.31L288.9,76l-2.09-.26-2.52-.25-1.84-.18c-1-.09-1.93-.15-2.9-.22l-1.5-.11c-.92-.06-1.85-.09-2.78-.13-.57,0-1.12-.07-1.69-.09-1.48-.06-3-.09-4.45-.11s-3,0-4.45,0l-1.68,0-2.78.07-1.51.08c-1,0-1.95.09-2.91.15L254,75.1c-.84.07-1.68.12-2.52.2l-2.09.22-2.25.22L245,76c-.75.1-1.51.18-2.26.29l-2,.31c-.76.12-1.51.22-2.27.35l-2,.35-2.32.42-1.91.39c-.77.15-1.53.3-2.28.46L228,79l-2.22.51-2,.5-2.13.55-2.11.59-2,.56-2.11.65-2,.61-2.08.69-1.94.66c-.69.24-1.37.49-2.05.74l-1.92.7-2,.78-1.93.76-2,.82-1.9.81c-.66.29-1.32.57-2,.88l-1.86.83c-.66.31-1.32.62-2,.94l-1.81.87-2,1-1.74.9-1.93,1-1.77,1-1.91,1.08-1.71,1-1.87,1.11-1.71,1-1.89,1.19c-.52.33-1,.66-1.56,1s-1.31.85-2,1.3l-1.49,1-1.92,1.34-1.5,1.07-1.86,1.36-1.49,1.12-1.82,1.4-1.44,1.14-1.81,1.45-1.42,1.18-1.78,1.5-1.34,1.17-1.77,1.57-1.34,1.21c-.57.53-1.15,1.06-1.72,1.6l-1.27,1.21L144.4,125l-1.21,1.2L141.48,128l-1.14,1.2L138.63,131l-1.12,1.22-1.67,1.88-1,1.18c-.57.66-1.12,1.3-1.68,2l-1,1.21c-.55.67-1.09,1.33-1.62,2l-.94,1.18c-.55.69-1.08,1.39-1.62,2.1l-.88,1.18c-.53.72-1.07,1.44-1.6,2.17l-.82,1.15-1.58,2.26-.77,1.14c-.51.77-1,1.53-1.53,2.31l-.34.53c-9.63-2.57-20.46-.87-30.79,5.78-23.58,15.18-35.66,50.37-27,78.6,6,19.41,20.18,30.47,36.15,30.57,5.67,9.12,15,16.64,27.42,22.73-5.73,16.78-8.85,32.9-9,46.5C116.56,395,166.69,442,247.1,449l1.39.14h.14c4.06.38,8.22.61,12.5.66h.59c1.16,0,2.3.09,3.48.1,90.93.68,149.63-47.91,150.09-108.34.1-13.64-2.72-29.85-8.16-46.78,12.6-5.86,22.21-13.2,28-22.21,15.11-.73,28.57-11.33,34.63-29.76C479,214.75,467.62,179.33,444.33,163.71Z" transform="translate(-39 -62.09)"/><path class="cls-2" d="M68.79,147.8c23.57-15.17,49.72-4.58,58.4,23.64s-3.4,63.42-27,78.59-49.73,4.59-58.4-23.64S45.22,163,68.79,147.8Z" transform="translate(-39 -62.09)"/><path class="cls-3" d="M74.69,167c-15.26,9.82-20.43,32.45-15.57,48.25S79,240.67,94.31,230.84s20.42-32.46,15.57-48.25S90,157.18,74.69,167Z" transform="translate(-39 -62.09)"/><path class="cls-2" d="M423.49,151.2c-23.28-15.62-49.63-5.54-58.84,22.52s2.19,63.48,25.47,79.1,49.63,5.55,58.84-22.51S446.77,166.83,423.49,151.2Z" transform="translate(-39 -62.09)"/><path class="cls-3" d="M417.22,170.29c15.06,10.11,19.8,32.84,14.65,48.54s-20.4,25-35.48,14.9-19.8-32.85-14.65-48.54S402.14,160.17,417.22,170.29Z" transform="translate(-39 -62.09)"/><path class="cls-4" d="M248.3,62.11c1.49,0,3,0,4.45.11.57,0,1.12.06,1.69.09.92,0,1.85.07,2.78.13l1.5.11c1,.07,1.94.13,2.9.22l1.84.18,2.52.25,2.09.26,2.25.28,2.07.31c.75.11,1.5.22,2.24.35s1.34.23,2,.35,1.51.25,2.27.39l1.94.39,2.31.46,1.91.44c.76.17,1.51.34,2.27.53s1.31.32,2,.49,1.48.37,2.22.57,1.31.37,2,.55,1.41.39,2.12.59l2.09.64,2,.61,2.1.69,1.93.66,2.06.74,1.93.71,2,.79,1.89.74,2,.83,1.91.8,2,.87,1.88.85,1.94.92,1.84.89c.66.32,1.3.65,2,1l1.78.91,2,1,1.73.94,1.91,1.07,1.74,1L336.07,87l1.69,1,1.85,1.16,1.68,1.08,1.86,1.23,1.54,1,1.93,1.35,1.47,1c.64.45,1.26.91,1.89,1.38l1.47,1.1,1.82,1.41,1.47,1.14,1.78,1.45,1.41,1.17c.6.49,1.19,1,1.78,1.5l1.39,1.2,1.74,1.54,1.32,1.2,1.73,1.61,1.3,1.25c.56.55,1.13,1.08,1.68,1.63l1.25,1.24q.85.86,1.69,1.73c.4.41.79.81,1.17,1.23.57.6,1.13,1.19,1.68,1.8l1.11,1.22c.56.62,1.11,1.24,1.67,1.87l1.08,1.25c.55.63,1.09,1.28,1.63,1.92l1,1.2c.55.68,1.1,1.34,1.63,2l1,1.24c.53.68,1.06,1.36,1.58,2l.91,1.2,1.57,2.14c.29.4.57.81.86,1.21.52.73,1,1.47,1.55,2.21.27.39.53.78.79,1.17q.77,1.14,1.52,2.3l.76,1.16c.49.78,1,1.56,1.47,2.35l.71,1.16c.49.8,1,1.6,1.44,2.41l.68,1.18c.47.8.92,1.62,1.38,2.43l.67,1.22c.45.82.89,1.64,1.32,2.46l.57,1.12c.46.88.91,1.77,1.35,2.65l.44.92c.46,1,.92,1.9,1.36,2.87l.39.85c.45,1,.9,2,1.33,3l.32.76c.44,1,.88,2.08,1.31,3.12l.26.64c.44,1.1.87,2.19,1.28,3.29l.18.49c.43,1.14.85,2.29,1.25,3.45l.17.49a173.91,173.91,0,0,1,9.56,54.18v.05h0c0,1.65.59-44.05,0,5s-80.62,64.53-177,63.41-172.58-18.46-172-67.48.07-3.32.13-5h0v-.06A173.84,173.84,0,0,1,82.72,175.6l.18-.48c.42-1.15.88-2.28,1.33-3.42l.19-.5c.44-1.09.9-2.17,1.36-3.25l.26-.63c.45-1,.92-2.07,1.38-3.1l.34-.75c.46-1,.93-2,1.4-3,.14-.28.26-.55.4-.84.47-.95.95-1.89,1.43-2.83l.46-.91c.46-.88.94-1.75,1.41-2.62l.6-1.11c.45-.81.91-1.62,1.37-2.43l.7-1.21c.47-.8.95-1.6,1.43-2.4l.71-1.16,1.49-2.37.74-1.14c.5-.77,1-1.54,1.53-2.31l.77-1.14,1.58-2.26.82-1.15c.53-.73,1.06-1.44,1.6-2.17l.88-1.18c.53-.71,1.07-1.4,1.62-2.1l.94-1.18c.53-.68,1.08-1.35,1.62-2l1-1.21c.56-.67,1.12-1.32,1.68-2l1-1.18,1.67-1.88,1.12-1.22,1.71-1.82,1.14-1.2,1.72-1.75,1.21-1.2,1.73-1.7,1.27-1.21c.57-.54,1.14-1.07,1.72-1.6l1.34-1.21,1.77-1.57,1.34-1.17,1.78-1.5,1.42-1.18,1.81-1.45,1.44-1.14,1.82-1.4,1.49-1.12,1.86-1.36,1.5-1.07,1.92-1.34,1.49-1c.66-.44,1.31-.87,2-1.3s1-.67,1.56-1L154.67,88l1.71-1,1.87-1.11,1.71-1,1.91-1.08,1.77-1,1.93-1,1.74-.9,2-1,1.81-.87c.65-.31,1.31-.63,2-.94l1.86-.83c.65-.3,1.31-.59,2-.88l1.9-.81,2-.82L182.7,74l2-.78,1.92-.7c.68-.25,1.36-.5,2.05-.74l1.94-.66,2.08-.69,2-.61,2.11-.65,2-.56,2.11-.59,2.13-.55,2-.5,2.22-.51,2-.45c.75-.16,1.51-.31,2.28-.46l1.91-.39,2.32-.42,2-.35c.76-.13,1.51-.23,2.27-.35l2-.31c.75-.11,1.5-.19,2.26-.29l2.08-.27,2.25-.22,2.09-.22c.84-.08,1.68-.13,2.52-.2l1.84-.14c1-.06,1.94-.1,2.91-.15l1.51-.08,2.78-.07,1.68,0Q246.06,62.08,248.3,62.11Z" transform="translate(-39 -62.09)"/><path class="cls-4" d="M246.6,157h.89c90.94.68,147.42,111.59,147,172s-59.16,109-150.09,108.34c-90.94-1.06-148.7-50.76-148-111.19S155.66,156,246.6,157Z" transform="translate(-39 -62.09)"/><path class="cls-5" d="M178,138.95l135.8,1.59c35.61.41,70.39,24.45,70,53.59s-32.25,52.39-71.28,51.93L176.8,244.47c-39-.45-70.4-24.45-70.05-53.58S142.41,138.53,178,138.95Z" transform="translate(-39 -62.09)"/><path class="cls-5" d="M242.91,212.53c73.16.86,131.88,51.87,131.15,113.93S313.45,438.15,240.29,437.3s-115.6-50.8-114.87-112.87S169.76,211.68,242.91,212.53Z" transform="translate(-39 -62.09)"/><path class="cls-6" d="M308.24,348a97,97,0,0,1-133.7-1.48A263.36,263.36,0,0,0,308.24,348Z" transform="translate(-39 -62.09)"/><path class="cls-7" d="M229.3,258.71c-2.35,3.77-10.24,3.1-17.63-1.49s-11.47-11.38-9.12-15.15,10.24-3.11,17.62,1.49S231.65,254.93,229.3,258.71Z" transform="translate(-39 -62.09)"/><path class="cls-8" d="M203.34,241.13c3-2.69,10.13-1.75,16.84,2.42,5.93,3.68,9.73,8.78,9.79,12.6-3,2.69-10.14,1.75-16.85-2.41C207.19,250,203.4,245,203.34,241.13Z" transform="translate(-39 -62.09)"/><path class="cls-7" d="M257.95,259c2.28,3.82,10.18,3.3,17.65-1.15s11.69-11.16,9.41-15-10.18-3.31-17.65,1.15S255.68,255.17,257.95,259Z" transform="translate(-39 -62.09)"/><path class="cls-8" d="M284.25,241.91c-3-2.74-10.1-2-16.89,2.1-6,3.57-9.89,8.6-10,12.41,3,2.75,10.11,1.94,16.89-2.1C280.22,250.74,284.12,245.73,284.25,241.91Z" transform="translate(-39 -62.09)"/><path class="cls-9" d="M243.09,263h0a1.1,1.1,0,0,0-1.11,1.09l-.82,75.85a1.09,1.09,0,0,0,1.08,1.1h0a1.09,1.09,0,0,0,1.11-1.07l.82-75.85A1.1,1.1,0,0,0,243.09,263Z" transform="translate(-39 -62.09)"/><path class="cls-10" d="M159.65,224.46a24.18,24.18,0,1,0-19-28.43A24.19,24.19,0,0,0,159.65,224.46Zm-10.26-26.69a15.27,15.27,0,1,1,30,6,15.81,15.81,0,0,1-.93,3,14.67,14.67,0,0,0-9.27-5.43A18,18,0,0,0,151,208.13,15.12,15.12,0,0,1,149.39,197.77Z" transform="translate(-39 -62.09)"/><path d="M169.15,201.31a14.67,14.67,0,0,1,9.27,5.43,15.81,15.81,0,0,0,.93-3A15.27,15.27,0,1,0,151,208.13,18,18,0,0,1,169.15,201.31Z" transform="translate(-39 -62.09)"/><path class="cls-10" d="M350.69,196a24.18,24.18,0,1,0-19,28.43A24.18,24.18,0,0,0,350.69,196Zm-10.36,12.1a18,18,0,0,0-18.14-6.82,14.67,14.67,0,0,0-9.27,5.43,15.81,15.81,0,0,1-.93-3,15.27,15.27,0,1,1,28.33,4.41Z" transform="translate(-39 -62.09)"/><path d="M322.2,201.31a14.67,14.67,0,0,0-9.27,5.43,15.81,15.81,0,0,1-.93-3,15.27,15.27,0,1,1,28.33,4.41A18,18,0,0,0,322.2,201.31Z" transform="translate(-39 -62.09)"/></svg>