<svg id="panda" xmlns="http://www.w3.org/2000/svg" viewBox="0 0 388.31 400"><defs><style>.cls-1{fill:#1b0000;opacity:0.2;}.cls-1,.cls-5,.cls-6{fill-rule:evenodd;}.cls-2{fill:#fff;}.cls-3,.cls-6{fill:#3c3c3b;}.cls-4{fill:#f6f6f6;}</style></defs><title>panda</title><path class="cls-1" d="M425.36,151.09a51.56,51.56,0,1,0-80.44-64.53L334.31,99.79a184.74,184.74,0,0,0-137.85,0L185.85,86.56a51.56,51.56,0,1,0-80.45,64.53l9.92,12.38A183.9,183.9,0,0,0,80.61,271.23c0,93.71,69.77,171.07,160.19,183.1l2.9.37c1.58.18,3.15.36,4.73.5s3.21.26,4.83.37c1.16.08,2.31.17,3.47.22,2.87.14,5.75.22,8.66.22s5.78-.08,8.65-.22c1.17-.05,2.33-.15,3.49-.22,1.61-.11,3.2-.22,4.79-.37s3.19-.32,4.78-.51l2.83-.36c90.44-12,160.23-89.38,160.23-183.1a183.9,183.9,0,0,0-34.72-107.76Z" transform="translate(-61.85 -56)"/><circle class="cls-2" cx="184.77" cy="203.97" r="184.77"/><path class="cls-3" d="M102.68,261.42a47.06,47.06,0,1,1,47.07,47.07A47.06,47.06,0,0,1,102.68,261.42Z" transform="translate(-61.85 -56)"/><path class="cls-3" d="M296.44,261.42a47.06,47.06,0,1,1,47.06,47.07A47.06,47.06,0,0,1,296.44,261.42Z" transform="translate(-61.85 -56)"/><path class="cls-4" d="M246.62,313.7c-32.94,0-59.64,25.67-59.64,57.35v63.64a181.93,181.93,0,0,0,119.27,0V371.05C306.25,339.37,279.55,313.7,246.62,313.7Z" transform="translate(-61.85 -56)"/><path class="cls-3" d="M94.6,67.34a51.57,51.57,0,0,1,72.49,8l16.19,20.19L102.83,160,86.64,139.83A51.58,51.58,0,0,1,94.6,67.34Z" transform="translate(-61.85 -56)"/><path class="cls-3" d="M398.64,67.34a51.56,51.56,0,0,0-72.48,8L310,95.49,390.41,160l16.19-20.19A51.57,51.57,0,0,0,398.64,67.34Z" transform="translate(-61.85 -56)"/><path class="cls-2" d="M141.36,283.9a21.76,21.76,0,1,0-17.1-25.59A21.77,21.77,0,0,0,141.36,283.9Zm-9.24-24a13.74,13.74,0,1,1,27,5.36,14.23,14.23,0,0,1-.84,2.71,13.21,13.21,0,0,0-8.34-4.89,16.22,16.22,0,0,0-16.32,6.14A13.6,13.6,0,0,1,132.12,259.88Z" transform="translate(-61.85 -56)"/><path d="M149.91,263.06a13.21,13.21,0,0,1,8.34,4.89,14.23,14.23,0,0,0,.84-2.71,13.74,13.74,0,1,0-25.5,4A16.22,16.22,0,0,1,149.91,263.06Z" transform="translate(-61.85 -56)"/><path class="cls-2" d="M365.84,258.31a21.77,21.77,0,1,0-17.1,25.59A21.76,21.76,0,0,0,365.84,258.31Zm-9.32,10.89a16.22,16.22,0,0,0-16.32-6.14,13.21,13.21,0,0,0-8.34,4.89,14.23,14.23,0,0,1-.84-2.71,13.74,13.74,0,1,1,25.5,4Z" transform="translate(-61.85 -56)"/><path d="M340.2,263.06a13.21,13.21,0,0,0-8.34,4.89,14.23,14.23,0,0,1-.84-2.71,13.74,13.74,0,1,1,25.5,4A16.22,16.22,0,0,0,340.2,263.06Z" transform="translate(-61.85 -56)"/><path class="cls-5" d="M246.62,339.18c-1-.05-2.05-.09-3.06-.1v48.21c-6.23,10.92-14.11,17.11-23.43,18.41-19.8,2.7-47.07-20.79-48.07-19.78,21.11,23.56,54.64,38.17,74.57,8.11,19.93,30.06,53.45,15.46,74.57-8.11-1-1-28.27,22.48-48.07,19.78-9.32-1.29-17.19-7.48-23.43-18.41V339.07C248.67,339.09,247.64,339.12,246.62,339.18Z" transform="translate(-61.85 -56)"/><path class="cls-6" d="M246.61,292.68c-50.54-.53-50.1,17.77-23.66,36.43a174.42,174.42,0,0,0,23.66,14.22,174.39,174.39,0,0,0,23.67-14.22C296.72,310.45,297.16,292.14,246.61,292.68Z" transform="translate(-61.85 -56)"/></svg>