<svg id="pig" xmlns="http://www.w3.org/2000/svg" viewBox="0 0 476.63 398.81"><defs><style>.cls-1{fill:#1b0000;fill-rule:evenodd;opacity:0.2;}.cls-2{fill:#ffbda2;}.cls-3{fill:#ffd6cd;}.cls-4{fill:#ff9669;}.cls-5{fill:#cf7128;}.cls-6{fill:#fff;}.cls-7{fill:#353a42;}</style></defs><title>pig</title><path class="cls-1" d="M443.49,85.73c-32.46,1.36-49.74,17.38-56.26,25.16a193.24,193.24,0,0,0-242.14.65c-6.75-7-25.34-22.29-58.57-21-43,1.72-46.8-5.45-46.8-5.45s-16.25,82.8,43.15,116.4A193.41,193.41,0,1,0,449.77,200C514.33,163.65,489.7,76.49,489.7,76.49S486.5,83.95,443.49,85.73Z" transform="translate(-17.69 -56.59)"/><path class="cls-2" d="M415,155a16.94,16.94,0,0,0,11.39-3.65c11.93-9.43,8.9-36.26,18.24-46.32,0,0-39.12,2.75-44.52,24.76-.18.75-.27,1.45-.39,2.16A193.5,193.5,0,0,1,415,155Z" transform="translate(-17.69 -56.59)"/><path class="cls-2" d="M48,111.49c10.13,9.27,9.3,36.25,22,44.68a17.12,17.12,0,0,0,6.12,2.51,193.58,193.58,0,0,1,17.84-27.34C85.68,111.07,48,111.49,48,111.49Z" transform="translate(-17.69 -56.59)"/><path class="cls-3" d="M246.58,443.41A193.39,193.39,0,0,0,429.77,188C494.33,151.65,469.7,64.49,469.7,64.49s-3.2,7.45-46.21,9.24C391,75.09,373.76,91.12,367.23,98.89a193.24,193.24,0,0,0-242.14.65c-6.75-7-25.34-22.29-58.57-21-43,1.72-46.8-5.45-46.8-5.45s-16.25,82.8,43.15,116.4A193.43,193.43,0,0,0,246.58,443.41Zm0-51.86c-56.57,0-102.43-28.66-102.43-64s45.86-64,102.43-64S349,292.2,349,327.54,303.15,391.55,246.58,391.55ZM444.64,105c-9.34,10.06-6.31,36.89-18.24,46.32A16.94,16.94,0,0,1,415,155a193.5,193.5,0,0,0-15.29-23c.13-.72.21-1.41.39-2.16C405.53,107.77,444.64,105,444.64,105ZM337,227.63a19.52,19.52,0,1,1,17,21.76A19.53,19.53,0,0,1,337,227.63Zm-180.75,0a19.52,19.52,0,1,1-21.77-17A19.52,19.52,0,0,1,156.21,227.63ZM70,156.17c-12.66-8.43-11.83-35.41-22-44.68,0,0,37.69-.42,45.92,19.84a193.58,193.58,0,0,0-17.84,27.34A17.12,17.12,0,0,1,70,156.17Z" transform="translate(-17.69 -56.59)"/><path class="cls-4" d="M246.58,263.54c-56.57,0-102.43,28.65-102.43,64s45.86,64,102.43,64S349,362.89,349,327.54,303.15,263.54,246.58,263.54Zm-33,85.62a21.62,21.62,0,1,1,21.62-21.62A21.62,21.62,0,0,1,213.58,349.16Zm66,0a21.62,21.62,0,1,1,21.61-21.62A21.62,21.62,0,0,1,279.58,349.16Z" transform="translate(-17.69 -56.59)"/><circle class="cls-5" cx="195.9" cy="270.95" r="21.62"/><path class="cls-5" d="M279.58,305.93a21.62,21.62,0,1,0,21.61,21.62A21.62,21.62,0,0,0,279.58,305.93Z" transform="translate(-17.69 -56.59)"/><path class="cls-6" d="M354,249.39a19.52,19.52,0,1,0-17-21.76A19.51,19.51,0,0,0,354,249.39Zm-9.87-20.88a12.33,12.33,0,0,1,24.48,3,12.21,12.21,0,0,1-3.86,7.54,14.53,14.53,0,0,0-12.18-9.82,11.86,11.86,0,0,0-8.48,1.81A13.91,13.91,0,0,1,344.08,228.51Z" transform="translate(-17.69 -56.59)"/><path class="cls-7" d="M352.53,229.24a14.53,14.53,0,0,1,12.18,9.82,12.33,12.33,0,0,0-6.87-21.28,12.34,12.34,0,0,0-13.75,10.73,13.91,13.91,0,0,0,0,2.55A11.86,11.86,0,0,1,352.53,229.24Z" transform="translate(-17.69 -56.59)"/><path class="cls-6" d="M117.46,232.39a19.52,19.52,0,1,0,17-21.75A19.51,19.51,0,0,0,117.46,232.39Zm17.87-14.62a12.33,12.33,0,0,1,13.75,10.73,12.93,12.93,0,0,1,.05,2.55,11.86,11.86,0,0,0-8.48-1.81,14.53,14.53,0,0,0-12.18,9.82,12.33,12.33,0,0,1,6.87-21.28Z" transform="translate(-17.69 -56.59)"/><path class="cls-7" d="M128.45,239.06a14.53,14.53,0,0,1,12.18-9.82,11.86,11.86,0,0,1,8.48,1.81,12.93,12.93,0,0,0-.05-2.55,12.33,12.33,0,1,0-20.62,10.55Z" transform="translate(-17.69 -56.59)"/></svg>