<svg id="sheep" xmlns="http://www.w3.org/2000/svg" viewBox="0 0 448 361.18"><defs><style>.cls-1{fill:#1b0000;opacity:0.2;}.cls-1,.cls-2,.cls-3,.cls-4,.cls-5,.cls-7{fill-rule:evenodd;}.cls-2{fill:#f3e7e3;}.cls-3{fill:#d65a6f;}.cls-4,.cls-6{fill:#fff;}.cls-5{fill:#fdcf9a;}</style></defs><title>sheep</title><path class="cls-1" d="M404.89,169.95a16.55,16.55,0,0,0-24.56-19.68c-.34.22-.61.5-.92.74-.14-.16-.28-.34-.42-.5.27-.27.57-.48.83-.77A16.6,16.6,0,0,0,354.7,128c-.25.29-.42.62-.65.92l-.5-.33c.16-.31.36-.6.52-.92a16.58,16.58,0,0,0-29.8-14.55c-.16.32-.23.65-.36,1l-.63-.23c.09-.3.22-.58.29-.89a16.57,16.57,0,0,0-32.37-7.15c-.06.31-.06.61-.11.93l-.69-.08c0-.32.09-.62.09-.94,0-26.59-45.78-28.4-45.78,0,0,.32.08.62.1.94l-.69.08c-.05-.31,0-.61-.11-.93A16.57,16.57,0,0,0,211.62,113c.07.32.2.59.29.89l-.63.23a9.57,9.57,0,0,0-.36-1,16.58,16.58,0,0,0-29.79,14.55c.15.32.35.61.52.92l-.51.33c-.22-.3-.39-.63-.65-.92a16.59,16.59,0,0,0-25.11,21.7c.25.29.56.49.82.77l-.42.5c-.3-.24-.58-.52-.92-.74a16.58,16.58,0,0,0-25.31,17.23l-.15,0C80.71,182.28,30.13,299.38,54.6,317.61c8.69,9.49,36.22-16.06,61.72-47A16.56,16.56,0,0,0,130,278a13.76,13.76,0,0,0,2.8-.29c.16,0,.29-.09.44-.12,0,.19.07.38.12.56a16.63,16.63,0,0,0-12.64,19.74h.05a16.48,16.48,0,0,0,16.16,13,15.67,15.67,0,0,0,3.33-.34c0,.19.07.4.11.6l-.17,0a16.59,16.59,0,0,0,3.5,32.79,18,18,0,0,0,3.55-.38l.08,0c0,.27.08.55.14.82a15.79,15.79,0,0,0-7.74,4.12,16.51,16.51,0,0,0,0,23.46c.92.92,3.45,2.3,3.49,2.52l1.73.09c0,.22,0,.44,0,.67a15.83,15.83,0,0,0,27,11.2,15.73,15.73,0,0,0,25.73,10.45c18.71,22.74,41.17,39,66.42,39.67,21.93-.62,41.75-12.93,58.84-31a15.82,15.82,0,0,0,13.24-9.72,15.82,15.82,0,0,0,27-9.35,15.83,15.83,0,0,0,27-11.2c0-.22,0-.44,0-.67l1.73-.09c.05-.22,2.57-1.6,3.5-2.52a16.52,16.52,0,0,0,0-23.46,15.84,15.84,0,0,0-7.74-4.12c.06-.27.1-.55.14-.82l.07,0a18,18,0,0,0,3.55.38A16.59,16.59,0,0,0,395,311.19l-.17,0c0-.21.09-.42.11-.6a15.62,15.62,0,0,0,3.33.34,16.48,16.48,0,0,0,16.16-13h.06a16.63,16.63,0,0,0-12.64-19.74c0-.18.08-.38.11-.56.15,0,.28.1.44.12a13.86,13.86,0,0,0,2.8.29,16.47,16.47,0,0,0,10-3.46c24.54,29.14,50.13,52.18,58.44,43.09C497.09,300.14,451.58,191.87,404.89,169.95Z" transform="translate(-32 -75.41)"/><path class="cls-2" d="M457.4,307.87C440,326.9,346.93,205.22,346.18,181.3c0,0-12.25-38.23,36.43-23.49S481.87,289.64,457.4,307.87Z" transform="translate(-32 -75.41)"/><path class="cls-3" d="M433.56,300.1c-26.7-21.36-65.95-72.6-81.09-101.71-.26-7.65,3.21-18.71,28.07-11.19,36.18,11,73.76,98,55.58,111.52A4.42,4.42,0,0,1,433.56,300.1Z" transform="translate(-32 -75.41)"/><path class="cls-2" d="M38.36,307.87c17.4,19,110.48-102.66,111.22-126.58,0,0,12.25-38.23-36.42-23.49S13.9,289.64,38.36,307.87Z" transform="translate(-32 -75.41)"/><path class="cls-3" d="M62.21,300.1c26.69-21.36,65.94-72.6,81.09-101.71.25-7.65-3.21-18.71-28.08-11.19-36.18,11-73.76,98-55.58,111.52A4.45,4.45,0,0,0,62.21,300.1Z" transform="translate(-32 -75.41)"/><path class="cls-4" d="M228.47,96c0,.32.08.62.1.94l-.69.08c-.05-.31,0-.61-.11-.93a16.57,16.57,0,0,0-32.37,7.15c.07.32.2.59.29.89l-.63.23a9.57,9.57,0,0,0-.36-1A16.58,16.58,0,0,0,164.89,118c.15.32.35.61.52.92l-.51.33c-.22-.3-.39-.63-.65-.92A16.59,16.59,0,0,0,139.15,140c.25.29.56.49.82.77l-.42.5c-.3-.24-.58-.52-.92-.74a16.59,16.59,0,0,0-18.15,27.77c.34.22.71.39,1.06.58-.08.18-.18.36-.26.55a12,12,0,0,0-1.13-.47,16.57,16.57,0,1,0-9.38,31.79c.39.12.79.18,1.19.27,0,.2-.06.41-.08.61-.41,0-.79-.12-1.2-.12a16.59,16.59,0,0,0,0,33.17h.05c.29,0,.56-.07.84-.09,0,.21,0,.41.07.61-.22,0-.42,0-.62,0a16.64,16.64,0,0,0-13.6,19.14v0a16.63,16.63,0,0,0,16.35,13.79,13.76,13.76,0,0,0,2.8-.29c.16,0,.29-.09.44-.12,0,.19.07.38.12.56a16.63,16.63,0,0,0-12.64,19.74h.05a16.48,16.48,0,0,0,16.16,13,15.67,15.67,0,0,0,3.33-.34c0,.19.07.4.11.6l-.17,0a16.59,16.59,0,0,0,3.5,32.79,18,18,0,0,0,3.55-.38l.08,0c0,.27.08.55.14.82a15.79,15.79,0,0,0-7.74,4.12,16.51,16.51,0,0,0,0,23.46c1.12,1.12,4.67,2.95,3.17,2.51l2.05.1c0,.22,0,.44,0,.67a15.83,15.83,0,0,0,27,11.2,15.82,15.82,0,0,0,27,9.35,15.82,15.82,0,0,0,23.31,7.25,15.83,15.83,0,1,0,4.55-22,15.9,15.9,0,0,0-4.55-4.53c12.6.05,25.83,0,39-.36,2.11.06,4.22.1,6.33.14s4.22-.08,6.32-.14c13.13.33,26.35.42,39,.36a15.74,15.74,0,0,0-4.55,4.53,15.82,15.82,0,1,0,4.55,22A15.82,15.82,0,0,0,320,386.08a15.82,15.82,0,0,0,27-9.35,15.83,15.83,0,0,0,27-11.2c0-.22,0-.44,0-.67l2-.1c-1.5.44,2.05-1.39,3.18-2.51a16.52,16.52,0,0,0,0-23.46,15.84,15.84,0,0,0-7.74-4.12c.06-.27.1-.55.14-.82l.07,0a18,18,0,0,0,3.55.38,16.59,16.59,0,0,0,3.51-32.79l-.17,0c0-.21.09-.42.11-.6a15.62,15.62,0,0,0,3.33.34,16.48,16.48,0,0,0,16.16-13h.06a16.63,16.63,0,0,0-12.64-19.74c0-.18.08-.38.11-.56.15,0,.28.1.44.12a13.86,13.86,0,0,0,2.8.29,16.64,16.64,0,0,0,16.35-13.79v0a16.64,16.64,0,0,0-13.61-19.14c-.2,0-.4,0-.62,0,0-.2.05-.41.07-.61.28,0,.55.09.83.09H392a16.59,16.59,0,0,0,0-33.17c-.41,0-.81.09-1.2.12,0-.2-.06-.41-.08-.61.4-.09.8-.15,1.19-.27A16.57,16.57,0,1,0,382.58,169c-.4.12-.75.32-1.13.47-.08-.19-.18-.37-.26-.55.35-.19.72-.36,1.07-.58a16.59,16.59,0,0,0-18.15-27.77c-.34.22-.61.5-.92.74-.14-.16-.28-.34-.42-.5.27-.27.57-.48.83-.77a16.6,16.6,0,0,0-25.11-21.7c-.25.29-.42.62-.65.92l-.5-.33c.16-.31.36-.6.52-.92A16.58,16.58,0,0,0,308,103.43c-.16.32-.23.65-.36,1l-.63-.23c.09-.3.22-.58.29-.89A16.57,16.57,0,0,0,275,96.13c-.06.31-.06.61-.11.93l-.69-.08c0-.32.09-.62.09-.94C274.25,69.45,228.47,67.64,228.47,96Z" transform="translate(-32 -75.41)"/><path class="cls-5" d="M247.88,181H184.7a63.2,63.2,0,0,0-63.21,63.19c0,38.69,50.56,180.56,126.39,182.68,75.83-2.13,126.39-144,126.39-182.68A63.19,63.19,0,0,0,311.07,181Z" transform="translate(-32 -75.41)"/><path class="cls-4" d="M251.36,175a16.08,16.08,0,0,1,12.19,5.55,16.1,16.1,0,0,1,29-5.76,16.11,16.11,0,0,1,27.4-6.57,16.08,16.08,0,0,1,12.37-5.76,15.74,15.74,0,1,1,0,31.47,16.08,16.08,0,0,1-11.9-5.22,16.16,16.16,0,0,1-25.68-1.24,16.11,16.11,0,0,1-27.69,6.25,15.94,15.94,0,0,1-15.71,12.75h-.42a15.94,15.94,0,0,1-15.71-12.75,16.12,16.12,0,0,1-27.7-6.25,16.16,16.16,0,0,1-25.67,1.24,16.09,16.09,0,0,1-11.9,5.22,15.74,15.74,0,1,1,0-31.47,16.07,16.07,0,0,1,12.36,5.76,16.12,16.12,0,0,1,27.4,6.57,16.09,16.09,0,0,1,29,5.76,16.08,16.08,0,0,1,12.2-5.55h.42Z" transform="translate(-32 -75.41)"/><path class="cls-4" d="M149.59,181.3c1.42-3.28,18.58,24.93-14.31,29-3,.37,10.42,12.77-3.74,24.1-4.19,3.36,8.48,13.15-.93,21.87-4.14,3.84,8.64,5.42,2.62,22.4,0,.1,11.65,22-2.76,20.18-4.32-.54-14.77-18-11.34-27.25,2.33-6.29-10.42-32.9.13-60.18,7.53-19.45-6.3-15.62,24-28.76.82-.36,6.56-1.95,7.47-1.59Z" transform="translate(-32 -75.41)"/><path class="cls-4" d="M343.67,174.92c-1.41-3.28-18.58,24.94,14.32,29,3,.37-10.42,12.77,3.73,24.09,4.2,3.36-8.48,13.15.93,21.87,4.14,3.84-8.63,5.43-2.62,22.4,0,.1-11.66,22,2.76,20.18,4.32-.53,14.77-18,11.34-27.25-2.33-6.29,10.42-32.9-.14-60.18-7.53-19.45,6.3-15.61-24-28.76-.82-.36-6.55-1.95-7.47-1.59Z" transform="translate(-32 -75.41)"/><path class="cls-6" d="M182.33,273.65a18.82,18.82,0,1,0-14.79-22.14A18.83,18.83,0,0,0,182.33,273.65Zm-8-20.78a11.89,11.89,0,1,1,23.32,4.64,12.31,12.31,0,0,1-.72,2.35,11.42,11.42,0,0,0-7.22-4.23,14,14,0,0,0-14.12,5.31A11.77,11.77,0,0,1,174.34,252.86Z" transform="translate(-32 -75.41)"/><path d="M189.72,255.62a11.42,11.42,0,0,1,7.22,4.23,12.31,12.31,0,0,0,.72-2.35,11.89,11.89,0,1,0-22.06,3.43A14,14,0,0,1,189.72,255.62Z" transform="translate(-32 -75.41)"/><path class="cls-6" d="M331.08,251.51a18.83,18.83,0,1,0-14.79,22.14A18.82,18.82,0,0,0,331.08,251.51ZM323,260.93a14,14,0,0,0-14.12-5.31,11.42,11.42,0,0,0-7.22,4.23,12.31,12.31,0,0,1-.72-2.35A11.89,11.89,0,1,1,323,260.93Z" transform="translate(-32 -75.41)"/><path d="M308.89,255.62a11.42,11.42,0,0,0-7.22,4.23,12.31,12.31,0,0,1-.72-2.35A11.89,11.89,0,1,1,323,260.93,14,14,0,0,0,308.89,255.62Z" transform="translate(-32 -75.41)"/><path class="cls-7" d="M247.88,330.75c-.88,0-1.77-.08-2.65-.09v41.7c-5.39,9.45-12.21,14.81-20.27,15.92-17.13,2.33-40.72-18-41.58-17.11,18.26,20.38,47.27,33,64.51,7,17.24,26,46.24,13.37,64.51-7-.86-.87-24.45,19.45-41.58,17.11-8.06-1.12-14.88-6.47-20.27-15.92v-41.7C249.66,330.67,248.77,330.7,247.88,330.75Z" transform="translate(-32 -75.41)"/><path class="cls-3" d="M247.88,290.52c-43.72-.46-43.34,15.38-20.47,31.51a150.86,150.86,0,0,0,20.47,12.3A150.88,150.88,0,0,0,268.35,322C291.22,305.9,291.6,290.06,247.88,290.52Z" transform="translate(-32 -75.41)"/></svg>