<svg id="tiger" xmlns="http://www.w3.org/2000/svg" viewBox="0 0 422 327.79"><defs><style>.cls-1{fill:#1b0000;fill-rule:evenodd;opacity:0.2;}.cls-2{fill:#b85e26;}.cls-3{fill:#fff;}.cls-4{fill:#ffac45;}.cls-5{fill:#e67a25;}.cls-6{fill:#d65a6f;}</style></defs><title>tiger</title><path class="cls-1" d="M448.77,319.15c-5.11-6.56-22.6-27.71-22.6-27.71L467,279.77l-13.86-10.93c-13.85-10.94-51-25.52-51-25.52s-.38-3.32-1.27-8.53v-.08c-.16-.91-.33-1.88-.52-2.89l-.22-1.17c-.13-.67-.26-1.34-.4-2.05-.09-.48-.2-1-.3-1.48-.14-.65-.27-1.3-.42-2l-.38-1.71c-.15-.65-.3-1.31-.46-2s-.29-1.22-.44-1.85-.35-1.38-.53-2.08-.31-1.23-.48-1.86c-.23-.84-.47-1.69-.71-2.54s-.47-1.63-.72-2.46-.55-1.84-.84-2.76h0c-.53-1.67-1.09-3.33-1.69-5h0c-.84-2.32-1.74-4.63-2.71-6.88l0-.09q-.66-1.52-1.36-3A48.16,48.16,0,0,0,416,149.26c0-26.58-21.06-48.12-47-48.12a47,47,0,0,0-43.45,29.73c-.47-.19-.91-.39-1.38-.57a158.91,158.91,0,0,0-23.5-6.94s0,0,0,0c-1-.22-2-.41-3-.6L296,122.4l-2.81-.5-1.68-.27q-2.7-.42-5.21-.73l-.91-.11-2.44-.26-1.41-.14-2.32-.19-.91-.06c-1.74-.12-3.39-.2-4.89-.25h0c-4.67-.15-8.08,0-9.85.09-1.77-.11-5.18-.24-9.85-.09h0c-1.49,0-3.13.13-4.87.25l-.93.06-2.3.19-1.44.14c-.79.08-1.59.16-2.42.25l-1,.13q-2.44.3-5.06.71l-1.7.27-2.8.49-1.68.32c-1,.19-2,.39-3,.6,0,0,0,0,0,0A158.48,158.48,0,0,0,203,130.3c-.48.18-.91.39-1.38.57a47,47,0,0,0-43.46-29.73c-26,0-47,21.54-47,48.12a48.16,48.16,0,0,0,27.38,43.67q-.7,1.48-1.36,3l0,.09c-1,2.25-1.87,4.55-2.71,6.88h0c-.6,1.66-1.16,3.33-1.69,5h0l-.05.16q-.57,1.81-1.1,3.6l-.28,1c-.25.86-.49,1.72-.72,2.56-.11.4-.21.8-.31,1.2-.2.76-.4,1.52-.59,2.27l-.31,1.26c-.17.72-.34,1.43-.51,2.13l-.28,1.2c-.16.71-.31,1.41-.46,2.1-.08.36-.16.72-.23,1.07-.15.73-.3,1.44-.44,2.14l-.17.82q-.26,1.32-.49,2.55c0,.06,0,.12,0,.18-1.24,6.71-1.75,11.17-1.75,11.17s-37.19,14.58-51,25.52L60.07,279.77l40.83,11.67s-17.5,21.14-22.6,27.71A59.54,59.54,0,0,0,71,330.81h34.27s-.55.87-1.46,2.35h0c-1.77,2.88-4.89,8.1-8,13.87l-.34.63c-.38.71-.75,1.42-1.13,2.15l-.41.8c-.37.73-.74,1.46-1.1,2.19l-.34.67q-.69,1.42-1.34,2.82l-.16.36q-.54,1.19-1,2.34c-.13.29-.24.58-.36.87q-.38.9-.72,1.77l-.35.92c-.21.58-.41,1.14-.59,1.69-.09.26-.18.53-.26.78-.24.78-.46,1.54-.63,2.25a85,85,0,0,0-2.21,22.14c0,.3,0,.46,0,.46s1.57-.63,4.46-1.59c1.24-.41,2.72-.88,4.42-1.39a198.6,198.6,0,0,1,65.49-8c20.94,1.1,38,8.49,51.79,16.4,2,1.13,3.88,2.27,5.73,3.4,10.87,6.68,19.53,13.14,26.34,15.92l.17.07c1.23.5,2.37.94,3.48,1.35l1,.36c1,.34,1.88.66,2.75.94l.46.15c1,.31,1.91.58,2.78.82l.7.19c.7.18,1.36.34,2,.48l.45.1c.74.16,1.42.29,2,.39l.35.05c.54.08,1.05.15,1.51.2l.22,0a28.63,28.63,0,0,0,5.12,0l.2,0c.47-.05,1-.12,1.55-.2l.31-.05q1-.15,2.08-.39l.39-.09c.64-.14,1.34-.31,2.06-.5l.64-.17c.89-.24,1.82-.51,2.83-.83l.34-.11c.91-.29,1.88-.62,2.89-1l.9-.33c1.17-.44,2.39-.9,3.7-1.43a52.67,52.67,0,0,0,6.5-3.33c4.08-2.4,8.69-5.5,13.86-8.84,15.53-10,36.21-22.12,63.48-23.55a198.6,198.6,0,0,1,65.49,8c1.7.51,3.18,1,4.42,1.39,2.89,1,4.46,1.59,4.46,1.59s0-.36,0-1A86,86,0,0,0,440,367.27c-.17-.73-.39-1.5-.65-2.3l-.2-.6c-.2-.61-.42-1.24-.66-1.88-.1-.26-.19-.52-.3-.78-.24-.64-.51-1.29-.78-1.94l-.31-.73q-.54-1.27-1.14-2.57l-.07-.15c-.44-1-.9-1.91-1.37-2.87l-.28-.56q-.56-1.15-1.15-2.29l-.4-.77c-.37-.72-.75-1.43-1.12-2.14l-.36-.67q-.69-1.28-1.38-2.52l-.07-.13c-1-1.85-2-3.59-3-5.19l-.16-.28c-.41-.69-.79-1.35-1.17-2l-.16-.27c-.81-1.35-1.53-2.55-2.1-3.47h0c-.91-1.49-1.47-2.36-1.47-2.36h34.27A59.47,59.47,0,0,0,448.77,319.15Z" transform="translate(-45 -92.1)"/><path class="cls-2" d="M348,120.52c14.76,0,26.73,12.25,26.73,27.35a27.54,27.54,0,0,1-9.61,21c2.27,3.65,4.35,7.31,6.28,10.91l.3.55,0,.08c.61,1.14,1.19,2.31,1.75,3.49a48.16,48.16,0,0,0,27.38-43.67c0-26.58-21.06-48.12-47-48.12a47,47,0,0,0-43.45,29.73,112.45,112.45,0,0,1,17.11,8.5A26.42,26.42,0,0,1,348,120.52Z" transform="translate(-45 -92.1)"/><path class="cls-3" d="M374.76,147.87c0-15.11-12-27.35-26.73-27.35a26.42,26.42,0,0,0-20.51,9.82c17.44,10.65,29,24.57,37.63,38.53A27.54,27.54,0,0,0,374.76,147.87Z" transform="translate(-45 -92.1)"/><path class="cls-2" d="M125.2,180.32l.35-.64h0c1.92-3.57,4-7.19,6.23-10.82a27.54,27.54,0,0,1-9.61-21c0-15.11,12-27.35,26.73-27.35a26.42,26.42,0,0,1,20.51,9.82,112.48,112.48,0,0,1,17.12-8.5A47,47,0,0,0,143.07,92.1c-26,0-47,21.54-47,48.12a48.16,48.16,0,0,0,27.38,43.67c.56-1.19,1.14-2.35,1.75-3.49Z" transform="translate(-45 -92.1)"/><path class="cls-3" d="M148.9,120.52c-14.76,0-26.73,12.25-26.73,27.35a27.54,27.54,0,0,0,9.61,21c8.66-14,20.19-27.87,37.63-38.53A26.42,26.42,0,0,0,148.9,120.52Z" transform="translate(-45 -92.1)"/><path class="cls-4" d="M419.21,343.84l.28.56Z" transform="translate(-45 -92.1)"/><path class="cls-4" d="M420.87,347.28l.07.15Z" transform="translate(-45 -92.1)"/><path class="cls-4" d="M417.66,340.79l.4.77Z" transform="translate(-45 -92.1)"/><path class="cls-4" d="M422.07,350l.31.73Z" transform="translate(-45 -92.1)"/><path class="cls-4" d="M423.16,352.67c.1.26.2.52.3.78Z" transform="translate(-45 -92.1)"/><path class="cls-4" d="M410.29,327.61l.16.27Z" transform="translate(-45 -92.1)"/><path class="cls-4" d="M414.73,335.33l.07.13Z" transform="translate(-45 -92.1)"/><path class="cls-4" d="M416.18,338l.36.67Z" transform="translate(-45 -92.1)"/><path class="cls-4" d="M411.62,329.86l.16.28Z" transform="translate(-45 -92.1)"/><path class="cls-4" d="M424.11,355.33l.2.6Z" transform="translate(-45 -92.1)"/><path class="cls-4" d="M267.84,111.49l2.44.26Z" transform="translate(-45 -92.1)"/><path class="cls-4" d="M352.77,369.89c-36.37,1.92-61,22.81-77.35,32.4,16.34-9.59,41-30.48,77.35-32.39a198.6,198.6,0,0,1,65.49,8A198.64,198.64,0,0,0,352.77,369.89Z" transform="translate(-45 -92.1)"/><path class="cls-4" d="M271.19,111.86q2.5.3,5.21.73Q273.7,112.17,271.19,111.86Z" transform="translate(-45 -92.1)"/><path class="cls-4" d="M264.12,111.17l2.32.19Z" transform="translate(-45 -92.1)"/><path class="cls-5" d="M441,321.77a59.47,59.47,0,0,0-7.29-11.66c-5.11-6.56-22.6-27.71-22.6-27.71l40.83-11.67L438.08,259.8c-13.85-10.94-51-25.52-51-25.52s-.38-3.32-1.27-8.53c-5.76,3.45-13.72,5.83-17.71,7.79-6,2.92-12.28,5.27-18.36,7.74.15-6.3,10-16.16,13.54-21.37,4.33-6.39,9.42-12.62,14.18-18.57.56-.69,1.2-1.63,1.91-2.47a204.94,204.94,0,0,1,6.43,26.81,195.2,195.2,0,0,0-8.12-31.8c-4.7,2.78-10.87,4.72-15,6.74-5.31,2.58-12.41,6.86-18.29,7.1.64-4.33,20.19-23.76,27.05-28l0,.09c-1.93-3.6-4-7.25-6.28-10.91-8.66-14-20.19-27.87-37.63-38.53a112.45,112.45,0,0,0-17.11-8.5c-.47-.19-.91-.39-1.38-.57a160,160,0,0,0-26.48-7.58c1,.19,2,.39,3,.6-1.11,12.1-4.44,23.92-7.49,35.69-2.49,9.61-4.61,20.13-9.12,29-4-16.23-6.07-33.28-8.31-49.91-.77-5.67-1.3-12.11-2.28-18.17,1.5,0,3.14.13,4.89.25a117.68,117.68,0,0,0-14.74-.16,117.39,117.39,0,0,0-14.72.16c1.74-.12,3.38-.2,4.87-.25-1,6.06-1.52,12.5-2.28,18.17-2.24,16.63-4.3,33.68-8.31,49.91-4.52-8.83-6.64-19.36-9.12-29-3.05-11.77-6.38-23.59-7.49-35.69,1-.22,2-.41,3-.6a160,160,0,0,0-26.47,7.58c-.48.18-.91.39-1.38.57a112.48,112.48,0,0,0-17.12,8.5c-17.44,10.65-29,24.57-37.63,38.53-2.25,3.63-4.31,7.25-6.23,10.82,6.87,4.26,26.41,23.69,27,28-5.87-.24-13-4.52-18.28-7.1-4.15-2-10.32-4-15-6.74-.6,1.66-1.16,3.33-1.69,5,.71.83,1.35,1.77,1.91,2.46,4.76,5.95,9.84,12.18,14.18,18.57,3.53,5.21,13.39,15.08,13.54,21.37-6.07-2.47-12.39-4.82-18.36-7.74-4-2-11.94-4.34-17.7-7.79A205.61,205.61,0,0,1,117.56,199a210,210,0,0,0-7.66,35.25s-37.19,14.58-51,25.52L45,270.73,85.83,282.4s-17.5,21.14-22.6,27.71a59.54,59.54,0,0,0-7.29,11.66H90.21s-.55.87-1.46,2.35c33.84-38.68,105.5-44.43,159.72-42.2,54.23-2.23,125.89,3.52,159.72,42.21-.91-1.49-1.47-2.36-1.47-2.36Z" transform="translate(-45 -92.1)"/><path class="cls-4" d="M374.92,187c1,2.25,1.87,4.55,2.71,6.88C376.79,191.54,375.89,189.24,374.92,187Z" transform="translate(-45 -92.1)"/><path class="cls-4" d="M268.93,405.62c-1.31.54-2.52,1-3.7,1.43C266.4,406.62,267.62,406.16,268.93,405.62Z" transform="translate(-45 -92.1)"/><path class="cls-4" d="M278.08,112.86l2.81.5Z" transform="translate(-45 -92.1)"/><path class="cls-4" d="M264.33,407.38c-1,.36-2,.69-2.89,1C262.35,408.07,263.32,407.74,264.33,407.38Z" transform="translate(-45 -92.1)"/><path class="cls-4" d="M261.1,408.48c-1,.32-1.94.59-2.83.83C259.15,409.07,260.09,408.8,261.1,408.48Z" transform="translate(-45 -92.1)"/><path class="cls-4" d="M422.68,379.25c-1.24-.41-2.72-.88-4.42-1.39C420,378.36,421.45,378.84,422.68,379.25Z" transform="translate(-45 -92.1)"/><path class="cls-4" d="M255.17,410.07q-1.13.24-2.08.39C253.73,410.36,254.42,410.23,255.17,410.07Z" transform="translate(-45 -92.1)"/><path class="cls-4" d="M257.62,409.48c-.73.19-1.42.36-2.06.5Q256.53,409.77,257.62,409.48Z" transform="translate(-45 -92.1)"/><path class="cls-4" d="M252.78,410.51c-.56.09-1.08.15-1.55.2C251.7,410.66,252.22,410.6,252.78,410.51Z" transform="translate(-45 -92.1)"/><path class="cls-4" d="M374.88,186.9q-.66-1.52-1.36-3c-.56-1.19-1.14-2.35-1.75-3.49C372.88,182.49,373.92,184.66,374.88,186.9Z" transform="translate(-45 -92.1)"/><path class="cls-4" d="M80.41,338.63l.34-.63Z" transform="translate(-45 -92.1)"/><path class="cls-4" d="M119.3,193.87c.84-2.32,1.74-4.63,2.71-6.88C121,189.24,120.14,191.54,119.3,193.87Z" transform="translate(-45 -92.1)"/><path class="cls-4" d="M75.92,347.61l.16-.36Z" transform="translate(-45 -92.1)"/><path class="cls-4" d="M78.86,341.57l.41-.8Z" transform="translate(-45 -92.1)"/><path class="cls-4" d="M77.43,344.43l.34-.67Z" transform="translate(-45 -92.1)"/><path class="cls-4" d="M216.05,113.36l2.8-.49Z" transform="translate(-45 -92.1)"/><path class="cls-4" d="M74.52,350.82c.12-.29.24-.58.36-.87Z" transform="translate(-45 -92.1)"/><path class="cls-4" d="M226.66,111.75c.83-.1,1.62-.17,2.42-.25C228.28,111.57,227.49,111.65,226.66,111.75Z" transform="translate(-45 -92.1)"/><path class="cls-4" d="M220.56,112.59q2.62-.41,5.06-.71Q223.18,112.18,220.56,112.59Z" transform="translate(-45 -92.1)"/><path class="cls-4" d="M230.51,111.36l2.3-.19Z" transform="translate(-45 -92.1)"/><path class="cls-4" d="M78.67,377.86a198.6,198.6,0,0,1,65.49-8c23.93,1.26,42.76,10.73,57.51,19.8-14.75-9.07-33.58-18.54-57.51-19.8A198.64,198.64,0,0,0,78.67,377.86Z" transform="translate(-45 -92.1)"/><path class="cls-4" d="M231.66,407c-1.11-.41-2.25-.85-3.48-1.35C229.41,406.19,230.55,406.63,231.66,407Z" transform="translate(-45 -92.1)"/><path class="cls-4" d="M72.61,356c.08-.25.17-.52.26-.78C72.78,355.46,72.69,355.72,72.61,356Z" transform="translate(-45 -92.1)"/><path class="cls-4" d="M78.67,377.86c-1.7.51-3.18,1-4.42,1.39C75.49,378.84,77,378.36,78.67,377.86Z" transform="translate(-45 -92.1)"/><path class="cls-4" d="M241.33,410c-.62-.14-1.28-.3-2-.48C240,409.67,240.71,409.83,241.33,410Z" transform="translate(-45 -92.1)"/><path class="cls-4" d="M235.4,408.34c-.87-.28-1.79-.6-2.75-.94C233.61,407.74,234.53,408.05,235.4,408.34Z" transform="translate(-45 -92.1)"/><path class="cls-4" d="M238.65,409.3c-.87-.24-1.79-.5-2.78-.82C236.86,408.8,237.77,409.07,238.65,409.3Z" transform="translate(-45 -92.1)"/><path class="cls-4" d="M73.46,353.51l.35-.92Z" transform="translate(-45 -92.1)"/><path class="cls-4" d="M243.83,410.46c-.63-.1-1.31-.23-2-.39C242.52,410.23,243.2,410.36,243.83,410.46Z" transform="translate(-45 -92.1)"/><path class="cls-4" d="M245.69,410.71c-.46-.05-1-.12-1.51-.2Q245,410.64,245.69,410.71Z" transform="translate(-45 -92.1)"/><path class="cls-4" d="M125.16,180.41c-.61,1.14-1.19,2.31-1.75,3.49q-.7,1.48-1.36,3C123,184.66,124.05,182.49,125.16,180.41Z" transform="translate(-45 -92.1)"/><path class="cls-4" d="M248.47,410.85a20.84,20.84,0,0,1-2.56-.11,28.63,28.63,0,0,0,5.12,0A21,21,0,0,1,248.47,410.85Z" transform="translate(-45 -92.1)"/><path class="cls-3" d="M248.47,281.92c-54.22-2.23-125.88,3.52-159.72,42.2h0c-1.77,2.88-4.89,8.1-8,13.87l-.34.63c-.38.71-.75,1.42-1.13,2.15l-.41.8c-.37.73-.74,1.46-1.1,2.19l-.34.67q-.69,1.42-1.34,2.82l-.16.36q-.54,1.19-1,2.34c-.13.29-.24.58-.36.87q-.38.9-.72,1.77l-.35.92c-.21.58-.41,1.14-.59,1.69-.09.26-.18.53-.26.78-.24.78-.46,1.54-.63,2.25a85,85,0,0,0-2.21,22.14c0,.3,0,.46,0,.46s1.57-.63,4.46-1.59c1.24-.41,2.72-.88,4.42-1.39a198.64,198.64,0,0,1,65.49-8c23.93,1.26,42.76,10.74,57.51,19.8,10.87,6.68,19.53,13.14,26.34,15.92l.17.07c1.23.5,2.37.94,3.48,1.35l1,.36c1,.34,1.88.66,2.75.94l.46.15c1,.31,1.91.58,2.78.82l.7.19c.7.18,1.36.34,2,.48l.45.1c.74.16,1.42.29,2,.39l.35.05c.54.08,1.05.15,1.51.2l.22,0a28.63,28.63,0,0,0,5.12,0l.2,0c.47-.05,1-.12,1.55-.2l.31-.05q1-.15,2.08-.39l.39-.09c.64-.14,1.34-.31,2.06-.5l.64-.17c.89-.24,1.82-.51,2.83-.83l.34-.11c.91-.29,1.88-.62,2.89-1l.9-.33c1.17-.44,2.39-.9,3.7-1.43a52.67,52.67,0,0,0,6.5-3.33c16.34-9.59,41-30.48,77.35-32.4a198.64,198.64,0,0,1,65.49,8c1.7.51,3.18,1,4.42,1.39,2.89,1,4.46,1.59,4.46,1.59s0-.36,0-1A86,86,0,0,0,425,358.23c-.17-.73-.39-1.5-.65-2.3l-.2-.6c-.2-.61-.42-1.24-.66-1.88-.1-.26-.19-.52-.3-.78-.24-.64-.51-1.29-.78-1.94l-.31-.73q-.54-1.27-1.14-2.57l-.07-.15c-.44-1-.9-1.91-1.37-2.87l-.28-.56q-.56-1.15-1.15-2.29l-.4-.77c-.37-.72-.75-1.43-1.12-2.14l-.36-.67q-.69-1.28-1.38-2.52l-.07-.13c-1-1.85-2-3.59-3-5.19l-.16-.28c-.41-.69-.79-1.35-1.17-2l-.16-.27c-.81-1.35-1.53-2.55-2.1-3.47h0C374.36,285.45,302.7,279.69,248.47,281.92Zm0,87c-16,24.14-42.92,12.41-59.87-6.51.8-.81,22.7,18,38.6,15.88,7.48-1,13.81-6,18.81-14.78V326.94a143.08,143.08,0,0,1-16.54-10.15c-21.23-15-21.58-29.68,19-29.25,40.58-.43,40.23,14.27,19,29.25a142.82,142.82,0,0,1-16.53,10.15V363.5c5,8.77,11.33,13.74,18.81,14.78,15.9,2.17,37.8-16.69,38.6-15.88C291.39,381.31,264.47,393,248.47,368.9Z" transform="translate(-45 -92.1)"/><path d="M377.42,201.33c-4.76,5.95-9.85,12.18-14.18,18.57-3.53,5.21-13.39,15.08-13.54,21.37,6.07-2.47,12.39-4.82,18.36-7.74,4-2,11.94-4.34,17.71-7.79h0v-.08a204.94,204.94,0,0,0-6.43-26.81C378.61,199.7,378,200.64,377.42,201.33Z" transform="translate(-45 -92.1)"/><path d="M371.77,180.41l0-.08-.3-.55,0-.09c-6.86,4.26-26.41,23.69-27.05,28,5.87-.24,13-4.52,18.29-7.1,4.15-2,10.32-4,15-6.74h0c-.84-2.32-1.74-4.63-2.71-6.88l0-.09C373.92,184.66,372.88,182.49,371.77,180.41Z" transform="translate(-45 -92.1)"/><path d="M260.6,129c2.24,16.63,4.3,33.68,8.31,49.91,4.52-8.83,6.64-19.36,9.12-29,3.05-11.77,6.38-23.59,7.49-35.69-1-.22-2-.41-3-.6l-1.66-.32-2.81-.5-1.68-.27q-2.7-.42-5.21-.73l-.91-.11-2.44-.26-1.41-.14-2.32-.19-.91-.06c-1.74-.12-3.39-.2-4.89-.25C259.3,116.91,259.84,123.36,260.6,129Z" transform="translate(-45 -92.1)"/><path d="M128.87,233.53c6,2.92,12.28,5.27,18.36,7.74-.15-6.3-10-16.16-13.54-21.37-4.33-6.39-9.42-12.62-14.18-18.57-.56-.69-1.2-1.63-1.91-2.46h0l-.05.16a205.61,205.61,0,0,0-6.39,26.72C116.93,229.2,124.88,231.58,128.87,233.53Z" transform="translate(-45 -92.1)"/><path d="M152.6,207.71c-.64-4.33-20.18-23.76-27-28h0l-.35.64,0,.08c-1.11,2.09-2.15,4.26-3.11,6.49l0,.09c-1,2.25-1.87,4.55-2.71,6.88h0c4.7,2.78,10.87,4.72,15,6.74C139.62,203.19,146.73,207.48,152.6,207.71Z" transform="translate(-45 -92.1)"/><path d="M218.9,150c2.49,9.61,4.61,20.13,9.12,29,4-16.23,6.07-33.28,8.31-49.91.77-5.67,1.3-12.11,2.28-18.17-1.49,0-3.13.13-4.87.25l-.93.06-2.3.19-1.44.14c-.79.08-1.59.16-2.42.25l-1,.13q-2.44.3-5.06.71l-1.7.27-2.8.49-1.68.32c-1,.19-2,.39-3,.6C212.52,126.38,215.85,138.2,218.9,150Z" transform="translate(-45 -92.1)"/><path d="M269.74,378.28c-7.48-1-13.81-6-18.81-14.78V326.93c-.84.44-1.72.9-2.47,1.27-.75-.37-1.62-.83-2.45-1.26V363.5c-5,8.77-11.33,13.74-18.81,14.78-15.9,2.17-37.8-16.69-38.6-15.88,17,18.92,43.87,30.65,59.87,6.51,16,24.14,42.92,12.41,59.87-6.51C307.54,361.58,285.64,380.44,269.74,378.28Z" transform="translate(-45 -92.1)"/><path class="cls-6" d="M248.46,328.2c.75-.37,1.62-.83,2.47-1.27a142.82,142.82,0,0,0,16.53-10.15c21.23-15,21.58-29.68-19-29.25-40.58-.43-40.23,14.27-19,29.25A143.08,143.08,0,0,0,246,326.94C246.85,327.37,247.72,327.83,248.46,328.2Z" transform="translate(-45 -92.1)"/><path class="cls-3" d="M182,256.38a17.47,17.47,0,1,0-13.73-20.55A17.48,17.48,0,0,0,182,256.38Zm-7.42-19.29a11,11,0,1,1,21.64,4.3,11.42,11.42,0,0,1-.67,2.18,10.6,10.6,0,0,0-6.7-3.93,13,13,0,0,0-13.11,4.93A10.92,10.92,0,0,1,174.57,237.09Z" transform="translate(-45 -92.1)"/><path d="M188.84,239.65a10.6,10.6,0,0,1,6.7,3.93,11.42,11.42,0,0,0,.67-2.18,11,11,0,1,0-20.47,3.18A13,13,0,0,1,188.84,239.65Z" transform="translate(-45 -92.1)"/><path class="cls-3" d="M320,235.84a17.48,17.48,0,1,0-13.73,20.55A17.47,17.47,0,0,0,320,235.84Zm-7.49,8.74a13,13,0,0,0-13.11-4.93,10.6,10.6,0,0,0-6.7,3.93,11.43,11.43,0,0,1-.67-2.18,11,11,0,1,1,20.47,3.18Z" transform="translate(-45 -92.1)"/><path d="M299.45,239.65a10.6,10.6,0,0,0-6.7,3.93,11.43,11.43,0,0,1-.67-2.18,11,11,0,1,1,20.47,3.18A13,13,0,0,0,299.45,239.65Z" transform="translate(-45 -92.1)"/></svg>