<svg id="zibra" xmlns="http://www.w3.org/2000/svg" viewBox="0 0 341.96 434.65"><defs><style>.cls-1{fill:#1b0000;fill-rule:evenodd;opacity:0.2;}.cls-2{fill:#fff;}.cls-3{fill:#404040;}</style></defs><title>zibra</title><path class="cls-1" d="M425.25,303.22c.46-3.18.82-6.4,1.09-9.64,0-.27,0-.53.06-.8.25-3.24.42-6.5.49-9.79,0-1.13.09-2.25.09-3.38,0-5.06-.27-10.06-.73-15h0c0-.16,0-.32-.06-.48-.25-2.62-.55-5.23-.92-7.81q-.62-4.34-1.46-8.6s0-.09,0-.14a161.46,161.46,0,0,0-30.42-66.78q-2.77-3.59-5.73-7l-.36-.42q-2.95-3.39-6.07-6.62l0,0a163,163,0,0,0-18.57-16.46c2.11-1.68,4.2-3.48,6.24-5.41,7.85-7.45,59.16-54.83,23-85.17S325.35,80.35,316,110.39c-1.62,5.2-3.24,9.76-4.83,13.78-4.42-1.32-8.9-2.48-13.47-3.42l7.86-54.36s-14-17.21-40.83-17.21-40.83,17.21-40.83,17.21l7.86,54.36c-4.61,1-9.13,2.12-13.58,3.46-1.59-4-3.22-8.6-4.84-13.82-9.33-30-39.67-81-75.83-50.71s15.14,77.72,23,85.17c2.06,1.95,4.17,3.76,6.3,5.46a163.21,163.21,0,0,0-18.5,16.41h0q-3.15,3.25-6.12,6.68l-.32.37q-3,3.44-5.75,7l0,0a161.34,161.34,0,0,0-30.45,66.75s0,.08,0,.11q-.83,4.19-1.44,8.47c-.38,2.66-.69,5.35-.95,8,0,.13,0,.27,0,.4h0c-.46,4.94-.73,9.94-.73,15,0,1.13.06,2.25.09,3.38.07,3.29.24,6.55.49,9.79,0,.27,0,.53.06.8.27,3.24.63,6.46,1.09,9.64,0,0,0,.08,0,.12A161.85,161.85,0,0,0,108,321.42l0,.1c.84,3.13,1.78,6.22,2.8,9.27l.32,1c1,3.06,2.15,6.08,3.36,9l0,0a161.84,161.84,0,0,0,21.69,37.76,155.25,155.25,0,0,0,30.4,34c4.38,22.8,25.56,60.8,99.18,60.8,74.88,0,95.52-39.33,99.4-62a155.06,155.06,0,0,0,34.51-41.76A162.13,162.13,0,0,0,415,340.79c1.21-3,2.32-6,3.36-9l.33-1c1-3,2-6.12,2.79-9.25l0-.11h0a161.15,161.15,0,0,0,3.73-18.08S425.24,303.26,425.25,303.22Z" transform="translate(-85.02 -38.67)"/><path class="cls-2" d="M85.78,253.72c.26-2.7.57-5.39.95-8C86.34,248.33,86,251,85.78,253.72Z" transform="translate(-85.02 -38.67)"/><path class="cls-2" d="M407.79,245.83c.37,2.58.67,5.19.92,7.81C408.45,251,408.16,248.41,407.79,245.83Z" transform="translate(-85.02 -38.67)"/><path class="cls-2" d="M408.75,254.12l-64.6,12.5s48.91-23.35,62.16-29.53a161.46,161.46,0,0,0-30.42-66.78L313.82,216.6l49.88-60.39a163,163,0,0,0-18.57-16.46c2.11-1.68,4.2-3.48,6.24-5.41,7.85-7.45,59.16-54.83,23-85.17s-66.5,20.68-75.83,50.71c-1.62,5.2-3.24,9.76-4.83,13.78-4.42-1.32-8.9-2.48-13.47-3.42l-.14,1c-18.5,2.58-32.83,68.88-32.83,68.88s-14.33-66.31-32.83-68.88l-.14-1c-4.61,1-9.13,2.12-13.58,3.46-1.59-4-3.22-8.6-4.84-13.82-9.33-30-39.67-81-75.83-50.71s15.14,77.72,23,85.17c2.06,1.95,4.17,3.76,6.3,5.46a163.2,163.2,0,0,0-18.5,16.41l49.87,60.39-62-46.26a161.34,161.34,0,0,0-30.45,66.75c13.25,6.17,62.16,29.53,62.16,29.53l-64.61-12.5c-.46,4.94-.73,9.94-.73,15,0,1.13.06,2.25.09,3.38l57.08,10L86.76,292.84a161.85,161.85,0,0,0,3.72,18.08c14.52-1.71,47.16-6.25,47.16-6.25L97,330.27A161.84,161.84,0,0,0,118.72,368a155.26,155.26,0,0,0,30.4,34,50.58,50.58,0,0,1-1-9.39c0-50.39,60.53-72.7,100.15-72.7s100.15,22.3,100.15,72.7a49.34,49.34,0,0,1-.76,8.21,155.06,155.06,0,0,0,34.51-41.76,162.13,162.13,0,0,0,15.3-28.79l-40.66-25.62s32.64,4.55,47.16,6.25a161.15,161.15,0,0,0,3.73-18.08l-55.42-10.33,57.08-10c0-1.13.09-2.25.09-3.38C409.48,264.05,409.21,259.06,408.75,254.12ZM351.36,78.34c14.83,7-2.68,39.67-33,53.67C318.35,132,336.53,71.34,351.36,78.34ZM143,78.34c14.83-7,33,53.67,33,53.67C145.69,118,128.19,85.34,143,78.34ZM197.71,304a25.72,25.72,0,1,1,26.61-24.78A25.72,25.72,0,0,1,197.71,304Zm99.07,0a25.72,25.72,0,1,1,24.78-26.62A25.71,25.71,0,0,1,296.79,304Z" transform="translate(-85.02 -38.67)"/><path class="cls-3" d="M298,247.16a31.15,31.15,0,1,0,32.25,30A31.14,31.14,0,0,0,298,247.16Z" transform="translate(-85.02 -38.67)"/><path class="cls-3" d="M196.46,247.16a31.15,31.15,0,1,0,30,32.25A31.15,31.15,0,0,0,196.46,247.16Z" transform="translate(-85.02 -38.67)"/><path class="cls-3" d="M248.3,319.95c-39.62,0-100.15,22.3-100.15,72.7a50.58,50.58,0,0,0,1,9.39c4.38,22.8,25.56,60.8,99.18,60.8,74.88,0,95.52-39.33,99.4-62a49.34,49.34,0,0,0,.76-8.21C348.45,342.25,287.92,319.95,248.3,319.95Zm54.56,81.29c2.56,15.75-27,26.64-27,26.64C270.74,394.48,300.28,385.49,302.86,401.23Zm-84.35,26.64S189,417,191.53,401.23,223.65,394.48,218.51,427.87Z" transform="translate(-85.02 -38.67)"/><path class="cls-2" d="M302.86,401.23c-2.57-15.75-32.12-6.75-27,26.64C275.88,427.87,305.42,417,302.86,401.23Z" transform="translate(-85.02 -38.67)"/><path class="cls-2" d="M218.51,427.87c5.14-33.39-24.4-42.39-27-26.64S218.51,427.87,218.51,427.87Z" transform="translate(-85.02 -38.67)"/><path class="cls-3" d="M176,132s-18.18-60.67-33-53.67S145.69,118,176,132Z" transform="translate(-85.02 -38.67)"/><path class="cls-3" d="M351.36,78.34c-14.83-7-33,53.67-33,53.67C348.68,118,366.19,85.34,351.36,78.34Z" transform="translate(-85.02 -38.67)"/><path class="cls-3" d="M247.25,180.13s14.33-66.31,32.83-68.88l.14-1,7.86-54.36s-14-17.21-40.83-17.21-40.83,17.21-40.83,17.21l7.86,54.36.14,1C232.92,113.83,247.25,180.13,247.25,180.13Z" transform="translate(-85.02 -38.67)"/><path class="cls-3" d="M137.65,304.67s-32.65,4.55-47.16,6.25l0,.1c.84,3.13,1.78,6.22,2.8,9.27l.32,1c1,3.06,2.15,6.08,3.36,9l0,0Z" transform="translate(-85.02 -38.67)"/><path class="cls-3" d="M142.19,282.51l-57.08-10c.07,3.29.24,6.55.49,9.79,0,.27,0,.53.06.8.27,3.24.63,6.46,1.09,9.64,0,0,0,.08,0,.12Z" transform="translate(-85.02 -38.67)"/><path class="cls-3" d="M150.35,266.62s-48.91-23.35-62.16-29.53c0,0,0,.08,0,.11q-.83,4.19-1.44,8.47c-.38,2.66-.69,5.35-.95,8,0,.13,0,.27,0,.4h0Z" transform="translate(-85.02 -38.67)"/><path class="cls-3" d="M180.69,216.6l-49.87-60.39h0q-3.15,3.25-6.12,6.68l-.32.37q-3,3.44-5.75,7l0,0Z" transform="translate(-85.02 -38.67)"/><path class="cls-3" d="M356.85,304.67l40.66,25.62c1.21-3,2.32-6,3.36-9l.33-1c1-3,2-6.12,2.79-9.25l0-.11h0C389.5,309.22,356.85,304.67,356.85,304.67Z" transform="translate(-85.02 -38.67)"/><path class="cls-3" d="M352.32,282.51l55.42,10.33s0-.08,0-.12c.46-3.18.82-6.4,1.09-9.64,0-.27,0-.53.06-.8.25-3.24.42-6.5.49-9.79Z" transform="translate(-85.02 -38.67)"/><path class="cls-3" d="M344.15,266.62l64.6-12.5h0c0-.16,0-.32-.06-.48-.25-2.62-.55-5.23-.92-7.81q-.62-4.34-1.46-8.6s0-.09,0-.14C393.05,243.26,344.15,266.62,344.15,266.62Z" transform="translate(-85.02 -38.67)"/><path class="cls-3" d="M313.82,216.6l62.07-46.29q-2.77-3.59-5.73-7l-.36-.42q-2.95-3.39-6.07-6.62l0,0Z" transform="translate(-85.02 -38.67)"/><path class="cls-2" d="M192.2,296a19,19,0,1,0-14.89-22.29A19,19,0,0,0,192.2,296Zm-8-20.92a12,12,0,1,1,23.48,4.67,12.29,12.29,0,0,1-.73,2.36,11.52,11.52,0,0,0-7.26-4.26,14.13,14.13,0,0,0-14.22,5.35A11.85,11.85,0,0,1,184.16,275.06Z" transform="translate(-85.02 -38.67)"/><path d="M199.64,277.83a11.52,11.52,0,0,1,7.26,4.26,12.29,12.29,0,0,0,.73-2.36,12,12,0,1,0-22.21,3.45A14.13,14.13,0,0,1,199.64,277.83Z" transform="translate(-85.02 -38.67)"/><path class="cls-2" d="M316.53,273.7A19,19,0,1,0,301.64,296,19,19,0,0,0,316.53,273.7Zm-8.12,9.48a14.13,14.13,0,0,0-14.22-5.35,11.52,11.52,0,0,0-7.26,4.26,12.32,12.32,0,0,1-.73-2.36,12,12,0,1,1,22.21,3.45Z" transform="translate(-85.02 -38.67)"/><path d="M294.2,277.83a11.52,11.52,0,0,0-7.26,4.26,12.32,12.32,0,0,1-.73-2.36,12,12,0,1,1,22.21,3.45A14.13,14.13,0,0,0,294.2,277.83Z" transform="translate(-85.02 -38.67)"/></svg>